<svg width="68" height="22" viewBox="0 0 68 22" fill="none" xmlns="http://www.w3.org/2000/svg">
<path fill-rule="evenodd" clip-rule="evenodd" d="M7.93942 0.00219727C7.72282 0.00381491 7.45108 0.00663002 7.08181 0.0111271C6.4924 0.0266888 6.04525 0.0623415 5.60703 0.140183C5.07308 0.23488 4.58966 0.390756 4.12747 0.623568C3.65777 0.859615 3.22763 1.16849 2.85444 1.5378C2.48167 1.90591 2.16885 2.33154 1.92892 2.7973C1.6931 3.25525 1.53519 3.7343 1.43852 4.26473C1.35957 4.69891 1.32376 5.14017 1.3081 5.71702L1.30273 5.95734C1.30131 6.03984 1.30021 6.12522 1.29943 6.21509L1.29688 6.73711L1.29691 15.2748L1.29849 15.6471C1.29972 15.8842 1.30267 16.0881 1.3081 16.2841C1.32379 16.8605 1.35961 17.3019 1.43848 17.7354C1.53522 18.2663 1.69317 18.7456 1.92889 19.2033C2.16892 19.6688 2.48161 20.0943 2.8547 20.4632C3.22825 20.8324 3.65841 21.1414 4.12802 21.3774C4.58966 21.61 5.07308 21.7658 5.60723 21.8606C6.00543 21.9313 6.41116 21.9672 6.91752 21.9847L7.29699 21.994C7.49431 21.9967 7.78594 21.9983 8.36816 22.0001L16.6245 21.9988C16.8434 21.9973 17.1079 21.9945 17.5119 21.9896C18.1013 21.974 18.5485 21.9384 18.9867 21.8605C19.5206 21.7658 20.0041 21.61 20.4663 21.3772C20.9355 21.1412 21.3658 20.8321 21.739 20.4632C22.1123 20.0941 22.4251 19.6684 22.6645 19.2032C22.9005 18.7457 23.0586 18.266 23.1549 17.7351C23.2267 17.3408 23.2631 16.9387 23.2808 16.4372L23.2856 16.2837C23.2889 16.1664 23.2912 16.046 23.2929 15.9174L23.2967 14.9055L23.2961 6.53623L23.2929 6.08332C23.2912 5.95472 23.2889 5.8342 23.2856 5.7166C23.27 5.14253 23.2339 4.69949 23.1549 4.26502C23.0586 3.73453 22.9006 3.25516 22.6642 2.79697C22.4251 2.33196 22.1123 1.90614 21.7387 1.53728C21.3664 1.16884 20.9361 0.859906 20.4659 0.623406C20.0041 0.390756 19.5206 0.23488 18.9865 0.140151C18.5883 0.069427 18.1826 0.0335155 17.6762 0.0160125L17.2404 0.00604725C17.2057 0.00562666 17.1682 0.00523869 17.1269 0.00488281L7.93942 0.00219727Z" fill="#1A1A1A" fill-opacity="0.01"/>
<path fill-rule="evenodd" clip-rule="evenodd" d="M7.08932 0.657528L7.97498 0.648438L17.1901 0.651996C17.3299 0.653419 17.4167 0.655167 17.5036 0.657528C17.9605 0.669661 18.4213 0.696417 18.8731 0.776685C19.3318 0.85802 19.7583 0.991088 20.1748 1.20086C20.584 1.40669 20.9589 1.67567 21.2837 1.99713C21.6085 2.31782 21.8806 2.68813 22.0888 3.09303C22.3014 3.50507 22.4356 3.92676 22.5179 4.38019C22.5991 4.82682 22.6261 5.28238 22.6384 5.73403C22.6442 5.94128 22.6467 6.14857 22.6478 6.35617L22.649 6.72529L22.6492 14.9049C22.6492 15.1511 22.6492 15.3972 22.6478 15.6437C22.6467 15.851 22.6442 16.0583 22.6384 16.2655C22.6261 16.7168 22.5991 17.1727 22.5179 17.619C22.4356 18.0724 22.3014 18.4945 22.0888 18.9065C21.8806 19.3111 21.6085 19.6814 21.2837 20.0024C20.9589 20.3235 20.584 20.5929 20.1748 20.7987C19.7583 21.0085 19.3318 21.1415 18.8731 21.2229C18.4213 21.3031 17.9605 21.3299 17.5036 21.342L16.1273 21.3527L7.40256 21.3476C7.26283 21.3461 7.17609 21.3444 7.08932 21.342C6.63247 21.3299 6.17163 21.3031 5.71982 21.2229C5.26119 21.1415 4.83465 21.0085 4.4182 20.7987C4.00861 20.5929 3.63403 20.3235 3.30924 20.0024C2.98448 19.6814 2.71236 19.3111 2.50378 18.9065C2.29161 18.4945 2.15734 18.0724 2.07471 17.619C1.99351 17.1727 1.96682 16.7168 1.95455 16.2655C1.94876 16.0583 1.94624 15.851 1.94517 15.6437L1.94359 15.2742L1.94336 7.09466C1.94336 6.84849 1.94336 6.60199 1.94517 6.35617C1.94624 6.14857 1.94876 5.94128 1.95455 5.73403C1.96682 5.28238 1.99351 4.82682 2.07471 4.38019C2.15734 3.92676 2.29161 3.50507 2.50378 3.09303C2.71236 2.68813 2.98448 2.31782 3.30924 1.99713C3.63403 1.67567 4.00861 1.40669 4.4182 1.20086C4.83465 0.991088 5.26119 0.85802 5.71982 0.776685C6.17163 0.696417 6.63247 0.669661 7.08932 0.657528Z" fill="#1A1A1A" fill-opacity="0.01"/>
<mask id="mask0_2038_5424" style="mask-type:alpha" maskUnits="userSpaceOnUse" x="1" y="0" width="22" height="22">
<path fill-rule="evenodd" clip-rule="evenodd" d="M7.08835 0.658017L7.97401 0.648926L17.1892 0.652484C17.3289 0.653907 17.4158 0.655655 17.5027 0.658017C17.9595 0.670149 18.4204 0.696905 18.8722 0.777173C19.3308 0.858508 19.7574 0.991576 20.1738 1.20135C20.583 1.40718 20.958 1.67616 21.2827 1.99762C21.6075 2.3183 21.8796 2.68862 22.0878 3.09351C22.3004 3.50556 22.4346 3.92725 22.5169 4.38068C22.5981 4.82731 22.6252 5.28287 22.6374 5.73452C22.6432 5.94177 22.6457 6.14905 22.6468 6.35666L22.6481 6.72578L22.6483 14.9054C22.6483 15.1515 22.6483 15.3977 22.6468 15.6442C22.6457 15.8515 22.6432 16.0588 22.6374 16.266C22.6252 16.7173 22.5981 17.1732 22.5169 17.6195C22.4346 18.0729 22.3004 18.495 22.0878 18.907C21.8796 19.3116 21.6075 19.6819 21.2827 20.0029C20.958 20.324 20.583 20.5933 20.1738 20.7992C19.7574 21.009 19.3308 21.142 18.8722 21.2234C18.4204 21.3036 17.9595 21.3304 17.5027 21.3425L16.1263 21.3532L7.40159 21.348C7.26185 21.3466 7.17512 21.3449 7.08835 21.3425C6.63149 21.3304 6.17065 21.3036 5.71884 21.2234C5.26021 21.142 4.83367 21.009 4.41722 20.7992C4.00763 20.5933 3.63305 20.324 3.30826 20.0029C2.9835 19.6819 2.71138 19.3116 2.5028 18.907C2.29063 18.495 2.15636 18.0729 2.07374 17.6195C1.99253 17.1732 1.96584 16.7173 1.95358 16.266C1.94779 16.0588 1.94526 15.8515 1.94419 15.6442L1.94261 15.2747L1.94238 7.09515C1.94238 6.84898 1.94238 6.60248 1.94419 6.35666C1.94526 6.14905 1.94779 5.94177 1.95358 5.73452C1.96584 5.28287 1.99253 4.82731 2.07374 4.38068C2.15636 3.92725 2.29063 3.50556 2.5028 3.09351C2.71138 2.68862 2.9835 2.3183 3.30826 1.99762C3.63305 1.67616 4.00763 1.40718 4.41722 1.20135C4.83367 0.991576 5.26021 0.858508 5.71884 0.777173C6.17065 0.696905 6.63149 0.670149 7.08835 0.658017Z" fill="white"/>
</mask>
<g mask="url(#mask0_2038_5424)">
<path d="M22.6473 0.647217H1.94141V21.3531H22.6473V0.647217Z" fill="#19AA1E"/>
<path fill-rule="evenodd" clip-rule="evenodd" d="M1.94141 0.647217H22.6473V7.44134L1.94141 4.20604V0.647217Z" fill="#FFB919"/>
<path fill-rule="evenodd" clip-rule="evenodd" d="M1.94141 19.0886L22.6473 15.8533V21.3533H1.94141V19.0886Z" fill="#82D714"/>
<path fill-rule="evenodd" clip-rule="evenodd" d="M1.94141 3.79688L9.16896 4.92615C10.0687 4.35664 11.139 4.04441 12.2943 4.04441C13.8945 4.04441 15.3317 4.64342 16.3782 5.69528C16.5103 5.82802 16.6349 5.96682 16.7516 6.11095L22.6473 7.03214V7.85076L17.3503 7.02314C17.7438 7.77832 17.9561 8.61973 17.9561 9.47841C17.9561 10.5877 17.708 11.6938 17.1951 12.8043L17.1795 12.8379L16.9616 13.3047H16.4465C15.3828 13.3047 14.6772 13.6229 14.216 14.1868C13.8537 14.6295 13.6443 15.2264 13.5738 15.8776L13.5717 15.8979L13.5614 16.002L13.557 16.0472L13.5486 16.1358C13.5217 16.4266 13.5036 16.6731 13.4944 16.8741L22.6473 15.4439V16.2625L1.94141 19.4978V18.6792L11.1046 17.2474L11.1005 17.0636L11.0993 17.0118L11.0986 16.9853L11.0972 16.9442C11.0889 16.7214 11.0685 16.4357 11.0358 16.0895L11.0295 16.0239L11.0183 15.9102C10.9525 15.2555 10.7462 14.6511 10.3849 14.2018C9.92848 13.634 9.22939 13.3112 8.17427 13.3048L8.1422 13.3047H7.62708L7.40925 12.8379C6.88575 11.7161 6.63258 10.5989 6.63258 9.47841C6.63258 8.06927 7.20426 6.70666 8.21047 5.69528C8.23952 5.6661 8.26887 5.63724 8.2985 5.60877L1.94141 4.61547V3.79688Z" fill="white"/>
<path fill-rule="evenodd" clip-rule="evenodd" d="M12.2943 4.85327C15.1851 4.85327 17.1473 7.07828 17.1473 9.47845C17.1473 10.4421 16.9371 11.4447 16.4465 12.4959C13.602 12.4959 12.8999 14.533 12.7672 15.8147L12.7586 15.9001C12.7137 16.3575 12.6876 16.7246 12.6805 17.0013L11.9101 17.1216L11.9099 17.0967C11.907 16.8067 11.8796 16.3998 11.8277 15.8761L11.8254 15.8533C11.7028 14.5743 11.0154 12.4959 8.1422 12.4959C7.65164 11.4447 7.44141 10.4421 7.44141 9.47845C7.44141 7.07828 9.40361 4.85327 12.2943 4.85327Z" fill="#0073FA"/>
</g>
<path fill-rule="evenodd" clip-rule="evenodd" d="M32.2253 5.66187C29.7018 5.66187 27.8091 7.19863 27.8253 9.86775H30.1709C30.1385 8.8001 30.8179 7.76481 32.2253 7.76481C33.2929 7.76481 33.9724 8.47657 33.9724 9.38245C33.9724 10.3207 33.2282 10.8383 32.0312 11.4207C30.4621 12.181 29.5238 12.5369 27.8253 13.103V16.1766H36.5606V14.0736H30.9959C31.8067 13.7356 32.5961 13.3645 33.3091 13.0222C35.2018 12.1163 36.3179 11.0972 36.3179 9.26922C36.3179 7.06922 34.6679 5.66187 32.2253 5.66187ZM40.1194 7.92657H44.6488V5.82363H37.8547V16.1766H40.1194V7.92657ZM48.2077 5.82363H45.9429V16.1766H48.1915L52.4135 9.56039V16.1766H54.6782V5.82363H52.4135L48.2077 12.4398V5.82363ZM66.0503 12.2942H63.7047C63.3488 13.4427 62.265 14.2354 60.9871 14.2354C59.1268 14.2354 57.9135 12.6339 57.9135 11.0001C57.9135 9.36628 59.0944 7.76481 61.0518 7.76481C62.3459 7.76481 63.3488 8.55745 63.7047 9.70598H66.0503C65.7106 7.39275 63.8827 5.66187 60.9871 5.66187C57.7841 5.66187 55.6488 7.91039 55.6488 11.0001C55.6488 14.0898 57.7841 16.3383 60.9871 16.3383C63.8827 16.3383 65.7106 14.6398 66.0503 12.2942Z" fill="#1A1A1A"/>
</svg>
