<svg width="78" height="34" viewBox="0 0 78 34" fill="none" xmlns="http://www.w3.org/2000/svg">
<mask id="mask0_1110_8498" style="mask-type:luminance" maskUnits="userSpaceOnUse" x="0" y="9" width="16" height="16">
<path fill-rule="evenodd" clip-rule="evenodd" d="M4.3314 9.71342L4.95551 9.70679L11.4473 9.70944C11.5458 9.71032 11.6073 9.71165 11.6683 9.71342C11.9901 9.72182 12.3149 9.74038 12.6332 9.7974C12.952 9.85119 13.261 9.95188 13.5503 10.0962C13.8385 10.2412 14.1029 10.4304 14.3314 10.6571C14.56 10.8828 14.7514 11.1433 14.8985 11.4288C15.0487 11.7192 15.1429 12.0167 15.2008 12.3358C15.2583 12.6506 15.2773 12.9715 15.2857 13.2897C15.2901 13.4356 15.2919 13.5814 15.2923 13.7277L15.2932 13.9881V19.7505C15.2932 19.9238 15.2932 20.0975 15.2923 20.2712C15.2914 20.4171 15.2901 20.5629 15.2857 20.7088C15.2768 21.027 15.2583 21.3484 15.2008 21.6626C15.1463 21.9785 15.0443 22.2843 14.8985 22.5696C14.7513 22.8553 14.5599 23.1159 14.3314 23.3418C14.102 23.5685 13.8384 23.7578 13.5503 23.9027C13.2611 24.0471 12.952 24.1478 12.6332 24.2015C12.3149 24.2581 11.9901 24.2767 11.6683 24.2855L10.6985 24.293L4.55196 24.2895C4.47843 24.2887 4.4049 24.2872 4.3314 24.2851C4.00962 24.2771 3.68474 24.2581 3.3665 24.2015C3.04785 24.1477 2.73892 24.047 2.44977 23.9027C1.87099 23.6115 1.3989 23.1449 1.10077 22.5696C0.955116 22.2842 0.8532 21.9784 0.798434 21.6626C0.740973 21.3484 0.722409 21.027 0.714011 20.7092C0.709591 20.5634 0.708265 20.4171 0.707381 20.2712L0.706055 20.01V14.2484C0.706055 14.0751 0.706055 13.9014 0.707381 13.7282C0.708265 13.5823 0.710033 13.4364 0.714011 13.2901C0.722851 12.9719 0.741415 12.651 0.798434 12.3363C0.853168 12.0205 0.955085 11.7148 1.10077 11.4293C1.39846 10.8538 1.87048 10.3872 2.44933 10.0962C2.73863 9.95187 3.0477 9.85118 3.3665 9.7974C3.68474 9.74082 4.00962 9.72226 4.3314 9.71342Z" fill="white"/>
</mask>
<g mask="url(#mask0_1110_8498)">
<path d="M-9.01855 1.74658H40.8535V51.6186H-9.01855V1.74658Z" fill="#19AA1E"/>
<path fill-rule="evenodd" clip-rule="evenodd" d="M-9.01855 1.74658H40.8535V18.1092L-9.01855 10.3177V1.74658Z" fill="#FFB919"/>
<path fill-rule="evenodd" clip-rule="evenodd" d="M-9.01855 9.33252L8.38973 12.0526C10.5567 10.6805 13.1347 9.92791 15.9167 9.92791C19.7701 9.92791 23.2336 11.371 25.7542 13.9037C26.0715 14.2241 26.3707 14.558 26.6533 14.9056L40.8535 17.1239V19.096L28.095 17.1013C29.0498 18.9268 29.5501 20.9557 29.5532 23.0159C29.5532 25.6875 28.9563 28.3517 27.7202 31.0264L27.6839 31.108L27.158 32.2323H25.9189C23.356 32.2323 21.6575 32.9984 20.5453 34.3569C19.6734 35.4223 19.1687 36.8609 18.9994 38.4294L18.9934 38.4778L18.9692 38.7286L18.9586 38.8374L18.9375 39.0505C18.8725 39.7517 18.8302 40.3456 18.8075 40.8291L40.8535 37.3837V39.3558L-9.01855 47.1487V45.1767L13.0516 41.7282L13.0425 41.2855L13.0395 41.1616L13.0365 41.0966L13.0335 40.9984C13.0138 40.4619 12.9639 39.7743 12.8854 38.9402L12.8703 38.7815L12.8431 38.508C12.6859 36.9304 12.1887 35.4752 11.3168 34.3932C10.2182 33.0256 8.53631 32.2474 5.99307 32.2323H4.67536L4.151 31.108C2.89071 28.4061 2.28021 25.7147 2.28021 23.0159C2.28021 19.6218 3.65686 16.3397 6.08072 13.9037L6.29228 13.6967L-9.01855 11.303V9.33252Z" fill="white"/>
<path fill-rule="evenodd" clip-rule="evenodd" d="M15.9162 11.8755C22.8795 11.8755 27.6048 17.234 27.6048 23.0156C27.6048 25.3367 27.0986 27.7515 25.9169 30.2841C19.0669 30.2841 17.3759 35.1893 17.0556 38.2781L17.0344 38.4821C16.9271 39.5852 16.8637 40.4692 16.847 41.1341L14.9914 41.4242V41.3638C14.9655 40.3817 14.899 39.4012 14.7919 38.4246L14.7874 38.3702C14.4912 35.289 12.8365 30.2841 5.91699 30.2841C4.73377 27.7515 4.22754 25.3367 4.22754 23.0156C4.22754 17.234 8.95437 11.8755 15.9162 11.8755Z" fill="#0073FA"/>
</g>
<path fill-rule="evenodd" clip-rule="evenodd" d="M26.8605 9.70679C23.2685 9.70679 20.5752 11.8065 20.5978 15.4531H23.9361C23.8902 13.9944 24.8567 12.5796 26.8605 12.5796C28.3795 12.5796 29.3467 13.552 29.3467 14.7897C29.3467 16.0719 28.2869 16.779 26.5842 17.575C24.3509 18.6134 23.0155 19.0996 20.5978 19.8727V24.0722H33.0298V21.1987H25.1104C26.2641 20.7368 27.3875 20.2297 28.4028 19.7623C31.0961 18.5252 32.6844 17.1326 32.6844 14.6355C32.6844 11.6294 30.3366 9.70679 26.8605 9.70679ZM38.0949 12.8005H44.5413V9.92766H34.8718V24.0722H38.0949V12.8005ZM49.6064 9.92766H46.3832V24.0722H49.5831L55.5921 15.0328V24.0722H58.8153V9.92766H55.5921L49.6064 18.967V9.92766ZM75.0004 18.7676H71.6621C71.1555 20.3374 69.6131 21.4202 67.7945 21.4202C65.1465 21.4202 63.4197 19.2323 63.4197 16.9999C63.4197 14.7675 65.1005 12.5796 67.8864 12.5796C69.7283 12.5796 71.1555 13.6631 71.6621 15.2322H75.0004C74.5171 12.0718 71.9157 9.70679 67.7945 9.70679C63.236 9.70679 60.1965 12.7789 60.1965 16.9999C60.1965 21.2209 63.236 24.293 67.7945 24.293C71.9157 24.293 74.5171 21.9731 75.0004 18.7676Z" fill="#262626"/>
</svg>
