<svg width="64" height="20" viewBox="0 0 64 20" fill="none" xmlns="http://www.w3.org/2000/svg">
<path d="M10 1.25C5.85775 1.25 2.5 4.60775 2.5 8.75C2.5 10.8204 3.33888 12.695 4.69563 14.0521C6.05275 15.41 9.25 17.375 9.4375 19.4375C9.46561 19.7468 9.6895 20 10 20C10.3105 20 10.5344 19.7468 10.5625 19.4375C10.75 17.375 13.9472 15.41 15.3044 14.0521C16.6611 12.695 17.5 10.8204 17.5 8.75C17.5 4.60775 14.1423 1.25 10 1.25Z" fill="#FF4433"/>
<path d="M9.99805 11.3755C11.4478 11.3755 12.623 10.2002 12.623 8.75049C12.623 7.30074 11.4478 6.12549 9.99805 6.12549C8.54831 6.12549 7.37305 7.30074 7.37305 8.75049C7.37305 10.2002 8.54831 11.3755 9.99805 11.3755Z" fill="white"/>
<g clip-path="url(#clip0_2038_5423)">
<mask id="mask0_2038_5423" style="mask-type:luminance" maskUnits="userSpaceOnUse" x="-1" y="-44" width="85" height="121">
<path d="M-0.509766 -43.2544H83.892V76.1138H-0.509766V-43.2544Z" fill="white"/>
</mask>
<g mask="url(#mask0_2038_5423)">
<path d="M27.374 10.5982H26.5734C25.3159 10.5982 24.0965 9.68085 24.0965 7.38723C24.0965 4.99779 25.2396 4.02325 26.4019 4.02325H27.374V10.5982ZM28.6314 2.80013H26.459C24.3253 2.80013 22.5151 4.4247 22.5151 7.57839C22.5151 9.47055 23.3919 10.8657 24.9538 11.5537L22.0391 16.8289C21.9439 17.001 22.0391 17.1345 22.1911 17.1345H23.5438C23.6582 17.1345 23.7345 17.0964 23.7725 17.001L26.4209 11.8212H27.374V17.001C27.374 17.0582 27.4311 17.1345 27.5068 17.1345H28.6886C28.8029 17.1345 28.8411 17.0772 28.8411 16.982V2.99141C28.8411 2.8573 28.7648 2.80013 28.6314 2.80013Z" fill="#ED1C24"/>
<path d="M35.7925 7.55229H34.6113C34.5159 7.55229 34.4588 7.6286 34.4588 7.68564V11.3364H32.2674V7.68564C32.2674 7.59045 32.2299 7.55229 32.1345 7.55229H30.9526C30.8581 7.55229 30.8008 7.60946 30.8008 7.68564V16.9748C30.8008 17.0701 30.8389 17.1274 30.9336 17.1274H32.1345C32.2107 17.1274 32.2674 17.0701 32.2674 16.9748V12.5408H34.4588V16.9748C34.4588 17.0701 34.5159 17.1274 34.6113 17.1274H35.7925C35.8879 17.1274 35.9259 17.0511 35.9259 16.9748V7.68564C35.9259 7.60946 35.8687 7.55229 35.7925 7.55229Z" fill="#231F20"/>
<path d="M62.768 16.5159L62.6155 15.866C62.597 15.8088 62.5779 15.7898 62.5207 15.7898C62.4255 15.7898 61.9109 15.9995 61.1679 15.9995C59.7199 15.9995 59.0146 14.6048 59.0146 12.3875C59.0146 10.4377 59.6055 8.50764 60.5961 8.50764C60.8631 8.50764 61.1871 8.58382 61.7011 9.06222C61.7584 9.11939 61.7965 9.13853 61.8536 9.13853C61.9109 9.13853 61.9679 9.09974 62.0253 9.00442L62.54 8.16387C62.5779 8.10606 62.597 8.04825 62.597 7.99109C62.597 7.91478 62.5207 7.85761 62.4064 7.80044C61.6248 7.39899 61.0916 7.32268 60.6343 7.32268C58.8431 7.32268 57.4521 9.46304 57.4521 12.8075C57.4521 15.6938 58.786 17.3564 60.6915 17.3564C61.4922 17.3564 62.3493 16.9746 62.6922 16.7257C62.768 16.6684 62.7869 16.5922 62.768 16.5159Z" fill="#231F20"/>
<path d="M54.4837 11.8712L56.7699 7.68553C56.808 7.62836 56.7888 7.55218 56.7126 7.55218H55.5885C55.2645 7.55218 55.1502 7.66652 55.0365 7.91497L53.321 11.4892C53.2262 11.6995 53.1308 11.833 53.0356 11.8908V7.68553C53.0356 7.60935 52.9976 7.55218 52.9213 7.55218H51.6828C51.6258 7.55218 51.5684 7.60935 51.5684 7.68553V16.9938C51.5684 17.051 51.6065 17.1272 51.6828 17.1272H52.9213C52.9976 17.1272 53.0356 17.07 53.0356 16.9938V12.1964C53.0928 12.2346 53.1308 12.2918 53.1689 12.3686L55.3408 16.8406C55.4552 17.07 55.6267 17.1272 55.8746 17.1272H57.0939C57.1702 17.1272 57.1891 17.051 57.1509 16.9938L54.4837 11.8712Z" fill="#231F20"/>
<path d="M41.5076 15.9232H38.7449C39.717 14.2607 40.0976 12.3876 40.231 10.0941C40.2691 9.59724 40.2882 9.08069 40.2882 8.75605H41.5076V15.9232ZM43.5656 15.9232H43.3368C43.051 15.9232 42.9747 15.8089 42.9747 15.5796V7.68555C42.9747 7.59023 42.9365 7.55208 42.8603 7.55208H39.0498C38.9544 7.55208 38.8974 7.60937 38.8974 7.68555V8.37361C38.8974 10.6862 38.7639 13.6678 37.5446 15.9232H37.1251C37.0108 15.9232 36.9727 15.9811 36.9727 16.0764V18.8668C36.9727 18.9626 37.049 19.0002 37.1061 19.0002H38.0211C38.2301 19.0002 38.3064 18.8476 38.3064 18.7136V17.1272H42.3844V18.8668C42.3844 18.9429 42.4409 19.0002 42.5172 19.0002H43.4893C43.6031 19.0002 43.7173 18.9049 43.7173 18.7136V16.0764C43.7173 15.9811 43.6603 15.9232 43.5656 15.9232Z" fill="#231F20"/>
<path d="M47.2441 11.4702C46.8056 11.4702 46.1201 11.5465 46.1201 11.5465C46.1201 11.5465 46.1201 11.2599 46.1582 10.9537C46.3291 9.32918 46.7295 8.50764 47.3965 8.50764C48.0066 8.50764 48.3871 9.34819 48.4824 10.8203C48.5016 11.1259 48.5016 11.4702 48.5016 11.4702H47.2441ZM47.4538 7.32281C45.3964 7.32281 44.4814 9.92191 44.4814 12.7505C44.4814 15.6367 45.7769 17.3564 47.6826 17.3564C48.6159 17.3564 49.4355 16.9938 49.8542 16.7257C49.9305 16.6875 49.9495 16.6304 49.9305 16.5541L49.778 15.9041C49.759 15.828 49.7209 15.7898 49.6256 15.7898C49.5499 15.7898 48.9971 15.9995 48.2156 15.9995C46.7485 15.9995 46.0629 14.7193 46.0629 13.0376V12.585C46.0629 12.585 46.8056 12.6741 47.2441 12.6741H50.0259V11.8711C50.0259 8.90922 48.9774 7.32281 47.4538 7.32281Z" fill="#231F20"/>
</g>
</g>
<defs>
<clipPath id="clip0_2038_5423">
<rect width="41.4" height="18" fill="white" transform="translate(22 1)"/>
</clipPath>
</defs>
</svg>
