<svg width="32" height="32" viewBox="0 0 32 32" fill="none" xmlns="http://www.w3.org/2000/svg">
<path d="M25.8562 1.06252C25.2312 1.21877 24.6062 1.75002 24.325 2.36252C24.2 2.63752 24.1625 2.81877 24.1562 3.15627C24.1562 3.57502 24.2312 3.80627 26.0875 8.93752C27.15 11.875 28.025 14.2875 28.0312 14.3C28.0437 14.3125 28.1687 14.2563 28.3187 14.175C28.5625 14.0438 28.7062 14.025 29.6562 14L30.725 13.9688L29.65 8.25627C29.0562 5.11252 28.525 2.41877 28.4687 2.26877C28.325 1.90002 27.8312 1.40627 27.4062 1.21252C27.0125 1.03127 26.2687 0.962518 25.8562 1.06252ZM26.8437 3.15627C26.9437 3.25002 27 3.38127 27 3.50002C27 3.61877 26.9437 3.75002 26.8437 3.84377C26.75 3.94377 26.6187 4.00002 26.5 4.00002C26.3812 4.00002 26.25 3.94377 26.1562 3.84377C26.0562 3.75002 26 3.61877 26 3.50002C26 3.38127 26.0562 3.25002 26.1562 3.15627C26.25 3.05627 26.3812 3.00002 26.5 3.00002C26.6187 3.00002 26.75 3.05627 26.8437 3.15627Z" fill="#1047B0"/>
<path d="M18.8563 4.88125C16.525 5.8375 14.5125 6.68125 14.3875 6.75625C13.425 7.3375 12.7875 8.25625 12.225 9.85625L12 10.5H15.0187H18.0375L18.15 10.2438C18.2125 10.1 18.3812 9.86875 18.525 9.725C18.6688 9.575 19.8688 8.775 21.3438 7.84375C22.7563 6.95625 23.9313 6.2125 23.9563 6.1875C23.9875 6.15625 23.8375 5.65 23.625 5.05625C23.4125 4.45625 23.2063 3.78125 23.1625 3.55625L23.0938 3.14375L18.8563 4.88125Z" fill="#1047B0"/>
<path d="M10.8873 11.6625C10.2686 11.9688 10.1998 12.125 9.59355 14.5437L9.1123 16.5H5.6998C3.2123 16.5 2.2248 16.5187 2.0373 16.575C1.69355 16.675 1.1748 17.1937 1.0748 17.5375C0.968555 17.9 0.968555 21.6 1.0748 21.9625C1.1748 22.3062 1.69355 22.825 2.0373 22.925C2.2373 22.9812 4.3498 23 11.0123 23C18.7686 23 19.7623 22.9875 20.0186 22.9C20.3748 22.7812 20.8373 22.3062 20.9311 21.9625C20.9748 21.8125 20.9998 20.9813 20.9998 19.8125V17.9062L19.8998 15.1562C19.2936 13.6438 18.7248 12.2937 18.6311 12.1562C18.5436 12.025 18.3436 11.825 18.1998 11.7188L17.9248 11.5312L14.5748 11.5125L11.2186 11.4937L10.8873 11.6625ZM13.9998 15.5V17.5H12.8123C10.9623 17.5 11.0186 17.6 11.6186 15.3688C11.9561 14.1 12.0873 13.6937 12.1936 13.6062C12.3061 13.5188 12.4561 13.5 13.1623 13.5H13.9998V15.5ZM16.8373 13.5687C16.9311 13.6125 17.0436 13.7625 17.1311 13.9625C17.2061 14.1375 17.6561 15.2062 18.1311 16.3375L18.9998 18.3937V19.5438C18.9998 20.6812 18.9998 20.6937 18.8436 20.8438L18.6936 21H16.9998H15.3061L15.1561 20.8438L14.9998 20.6937V17.0938V13.5H15.8436C16.3311 13.5 16.7436 13.5312 16.8373 13.5687ZM3.84355 18.6562C3.99355 18.8 3.9998 18.8312 3.9998 19.75C3.9998 20.6688 3.99355 20.7 3.84355 20.8438C3.7498 20.9437 3.61855 21 3.4998 21C3.38105 21 3.2498 20.9437 3.15605 20.8438C3.00605 20.7 2.9998 20.6688 2.9998 19.75C2.9998 18.8312 3.00605 18.8 3.15605 18.6562C3.2498 18.5563 3.38105 18.5 3.4998 18.5C3.61855 18.5 3.7498 18.5563 3.84355 18.6562ZM5.84355 18.6562C5.99355 18.8 5.9998 18.8312 5.9998 19.75C5.9998 20.6688 5.99355 20.7 5.84355 20.8438C5.7498 20.9437 5.61855 21 5.4998 21C5.38105 21 5.2498 20.9437 5.15605 20.8438C5.00605 20.7 4.9998 20.6688 4.9998 19.75C4.9998 18.8312 5.00605 18.8 5.15605 18.6562C5.2498 18.5563 5.38105 18.5 5.4998 18.5C5.61855 18.5 5.7498 18.5563 5.84355 18.6562ZM7.84355 18.6562C7.99355 18.8 7.9998 18.8312 7.9998 19.7375C7.9998 20.5625 7.9873 20.6937 7.88105 20.8187C7.7123 21.025 7.2873 21.025 7.11855 20.8187C7.0123 20.6937 6.9998 20.5625 6.9998 19.7375C6.9998 18.8312 7.00605 18.8 7.15605 18.6562C7.2498 18.5563 7.38105 18.5 7.4998 18.5C7.61855 18.5 7.7498 18.5563 7.84355 18.6562Z" fill="#1047B0"/>
<path d="M28.7311 15.075C28.6749 15.1188 27.5874 16.5438 26.3124 18.2438C23.8249 21.5688 23.8436 21.5375 24.1561 21.85L24.3186 22.0125L26.2686 21.9875C28.1061 21.9625 28.2436 21.95 28.6061 21.8188C29.6374 21.4438 30.4436 20.6375 30.8186 19.6063C30.9499 19.2438 30.9624 19.1063 30.9874 17.2688L31.0124 15.3188L30.8499 15.1563C30.6936 15.0063 30.6749 15 29.7624 15C29.1186 15 28.8061 15.025 28.7311 15.075Z" fill="#1047B0"/>
<path d="M3.78118 24.075C3.22493 24.175 2.50618 24.575 2.04368 25.0313C0.19368 26.8625 0.94368 29.9813 3.43118 30.8313L3.84368 30.9688L12.0624 30.9875C21.1874 31.0063 20.7499 31.025 21.6124 30.5938C22.3687 30.2125 23.0312 29.4313 23.3249 28.575C23.5124 28.025 23.5249 27.0188 23.3499 26.5C22.9312 25.2438 21.8687 24.2875 20.6624 24.0688C20.1874 23.9813 4.23743 23.9875 3.78118 24.075ZM5.96243 26.075C6.49993 26.2375 6.99993 26.925 6.99993 27.5C6.99993 28.275 6.27493 29 5.49993 29C5.10618 29 4.78743 28.8563 4.46868 28.5313C3.83118 27.9 3.83118 27.1 4.46868 26.4688C4.90618 26.025 5.37493 25.9063 5.96243 26.075ZM10.4624 26.075C10.6249 26.125 10.8374 26.2688 11.0312 26.4688C11.5187 26.95 11.6249 27.5063 11.3499 28.1C11.0187 28.8063 10.2874 29.1438 9.53743 28.925C9.19368 28.825 8.67493 28.3063 8.57493 27.9625C8.39993 27.375 8.52493 26.9063 8.96868 26.4688C9.40618 26.025 9.87493 25.9063 10.4624 26.075ZM14.9437 26.075C15.4999 26.2375 15.9999 26.9188 15.9999 27.5C15.9999 28.275 15.2687 29 14.4999 29C13.9437 29 13.3999 28.6313 13.1499 28.1C12.8749 27.5063 12.9812 26.95 13.4687 26.4688C13.8999 26.0313 14.3812 25.9 14.9437 26.075ZM19.4624 26.075C19.9999 26.2375 20.4999 26.925 20.4999 27.5C20.4999 28.275 19.7749 29 18.9999 29C18.2249 29 17.4999 28.275 17.4999 27.5C17.4999 27.1063 17.6437 26.7875 17.9687 26.4688C18.4062 26.025 18.8749 25.9063 19.4624 26.075Z" fill="#1047B0"/>
</svg>
