<svg width="301" height="74" viewBox="0 0 301 74" fill="none" xmlns="http://www.w3.org/2000/svg">
<path d="M65.5394 39.5359H60.3194V23.9659H53.1494V39.5359H47.9594V19.5259H65.5394V39.5359ZM81.967 19.5259V23.9359H75.787V27.2659H81.637V31.6759H75.787V35.1259H81.967V39.5359H70.597V19.5259H81.967ZM86.1447 39.5359V19.5259H91.3647V35.1559H98.2647V19.5259H103.485V35.1559H106.005V44.0359H101.325V39.5359H86.1447ZM111.377 19.5259H126.797V39.5359H121.577V23.9059H116.537V31.1959C116.537 34.3959 115.837 36.6959 114.437 38.0959C113.257 39.2359 111.697 39.8059 109.757 39.8059C108.957 39.8059 108.167 39.7159 107.387 39.5359V34.7359C107.807 34.8759 108.207 34.9459 108.587 34.9459C109.307 34.9459 109.887 34.7459 110.327 34.3459C111.027 33.7059 111.377 32.4459 111.377 30.5659V19.5259ZM153.039 29.5459C153.039 32.5059 151.989 34.9959 149.889 37.0159C147.809 38.9959 145.179 39.9859 141.999 39.9859C138.819 39.9859 136.189 38.9959 134.109 37.0159C132.009 34.9959 130.959 32.5059 130.959 29.5459C130.959 28.1659 131.219 26.8159 131.739 25.4959C132.279 24.1759 133.069 23.0259 134.109 22.0459C136.189 20.0659 138.819 19.0759 141.999 19.0759C145.179 19.0759 147.809 20.0659 149.889 22.0459C150.929 23.0259 151.709 24.1759 152.229 25.4959C152.769 26.8159 153.039 28.1659 153.039 29.5459ZM141.999 24.1159C140.359 24.1159 139.009 24.6459 137.949 25.7059C136.889 26.7459 136.359 28.0559 136.359 29.6359C136.359 31.0959 136.889 32.3359 137.949 33.3559C139.049 34.4159 140.399 34.9459 141.999 34.9459C143.639 34.9459 144.979 34.4259 146.019 33.3859C147.099 32.3059 147.639 31.0259 147.639 29.5459C147.639 28.0259 147.099 26.7459 146.019 25.7059C144.899 24.6459 143.559 24.1159 141.999 24.1159ZM168.921 19.5259V23.9359H162.411V39.5359H157.221V19.5259H168.921ZM172.886 19.5259H178.106V32.1259L185.606 19.5259H190.916V39.5359H185.696V26.9359L178.196 39.5359H172.886V19.5259ZM210.363 32.8459V38.9959C208.543 39.6559 207.043 39.9859 205.863 39.9859C202.743 39.9859 200.163 38.9859 198.123 36.9859C197.163 36.0259 196.413 34.9059 195.873 33.6259C195.353 32.3259 195.093 31.0159 195.093 29.6959C195.093 28.3159 195.363 26.9759 195.903 25.6759C196.463 24.3759 197.203 23.2559 198.123 22.3159C200.163 20.2359 202.683 19.1959 205.683 19.1959C207.143 19.1959 208.703 19.5359 210.363 20.2159V26.4259C209.183 24.9659 207.673 24.2359 205.833 24.2359C204.413 24.2359 203.213 24.6759 202.233 25.5559C201.073 26.6359 200.493 28.0059 200.493 29.6659C200.493 31.2459 201.033 32.5459 202.113 33.5659C203.093 34.4859 204.333 34.9459 205.833 34.9459C207.573 34.9459 209.083 34.2459 210.363 32.8459ZM227.14 23.9359H222.82V39.5359H217.63V23.9359H213.4V19.5259H227.14V23.9359ZM230.282 19.5259H235.502V32.1259L243.002 19.5259H248.312V39.5359H243.092V26.9359L235.592 39.5359H230.282V19.5259ZM258.578 19.5259V27.7759L264.938 19.5259H271.358L263.408 29.0059L272.078 39.5359H265.358L258.578 30.8659V39.5359H253.388V19.5259H258.578ZM288.88 39.5359L287.65 36.1759H280.39L279.04 39.5359H273.55L281.23 19.5259H286.9L294.43 39.5359H288.88ZM281.83 32.2159H286.27L284.02 25.7359L281.83 32.2159Z" fill="#1C1C1E"/>
<path d="M30.2952 32.846V38.996C28.4752 39.656 26.9752 39.986 25.7952 39.986C22.6752 39.986 20.0952 38.986 18.0552 36.986C17.0952 36.026 16.3452 34.906 15.8052 33.626C15.2852 32.326 15.0252 31.016 15.0252 29.696C15.0252 28.316 15.2952 26.976 15.8352 25.676C16.3952 24.376 17.1352 23.256 18.0552 22.316C20.0952 20.236 22.6152 19.196 25.6152 19.196C27.0752 19.196 28.6352 19.536 30.2952 20.216V26.426C29.1152 24.966 27.6052 24.236 25.7652 24.236C24.3452 24.236 23.1452 24.676 22.1652 25.556C21.0052 26.636 20.4252 28.006 20.4252 29.666C20.4252 31.246 20.9652 32.546 22.0452 33.566C23.0252 34.486 24.2652 34.946 25.7652 34.946C27.5052 34.946 29.0152 34.246 30.2952 32.846Z" fill="#1047B0"/>
<path d="M23.7314 9.13965L41.918 19.6396V40.6396L23.7314 51.1396L5.54491 40.6396V19.6396L23.7314 9.13965Z" stroke="#1047B0" stroke-width="3.1635"/>
<path d="M51.6343 50.4184V52.7284C50.8923 52.0004 50.0593 51.6364 49.1353 51.6364C48.3513 51.6364 47.7003 51.8954 47.1823 52.4134C46.6783 52.9174 46.4263 53.5964 46.4263 54.4504C46.4263 55.3324 46.6923 56.0394 47.2243 56.5714C47.7283 57.0474 48.3513 57.2854 49.0933 57.2854C50.1153 57.2854 50.9623 56.9074 51.6343 56.1514V58.4404C50.8923 58.9024 49.9963 59.1334 48.9463 59.1334C47.5323 59.1334 46.4123 58.6994 45.5863 57.8314C44.7463 56.9634 44.3263 55.8574 44.3263 54.5134C44.3263 53.1274 44.7743 51.9864 45.6703 51.0904C46.5383 50.2224 47.7213 49.7884 49.2193 49.7884C50.0733 49.7884 50.8783 49.9984 51.6343 50.4184ZM53.4387 50.0194H61.1247V58.8604H59.0667V51.9094H55.4967V58.8604H53.4387V50.0194ZM69.7606 55.8784L71.4826 56.8444C71.0906 57.5444 70.5936 58.0834 69.9916 58.4614C69.3056 58.9094 68.4376 59.1334 67.3876 59.1334C66.1556 59.1334 65.1616 58.7554 64.4056 57.9994C63.5376 57.1314 63.1036 56.0044 63.1036 54.6184C63.1036 53.1624 63.5726 51.9514 64.5106 50.9854C65.3086 50.1874 66.2956 49.7884 67.4716 49.7884C68.6196 49.7884 69.5646 50.1734 70.3066 50.9434C71.1326 51.7974 71.5456 53.0434 71.5456 54.6814V54.9334H65.2036C65.2596 55.6754 65.5116 56.2704 65.9596 56.7184C66.3376 57.0964 66.8626 57.2854 67.5346 57.2854C68.0806 57.2854 68.5496 57.1384 68.9416 56.8444C69.2636 56.5924 69.5366 56.2704 69.7606 55.8784ZM65.3506 53.2534H69.4456C69.3616 52.7634 69.1516 52.3644 68.8156 52.0564C68.4516 51.7204 67.9896 51.5524 67.4296 51.5524C66.8416 51.5524 66.3586 51.7414 65.9806 52.1194C65.6726 52.3994 65.4626 52.7774 65.3506 53.2534ZM73.5285 58.8604V50.0194H75.5865V56.9704H79.0725V50.0194H81.1305V56.9704H82.6005V61.3804H80.7105V58.8604H73.5285ZM89.9915 51.9094H87.4085V58.8604H85.3505V51.9094H82.7675V50.0194H89.9915V51.9094ZM97.2703 55.8784L98.9923 56.8444C98.6003 57.5444 98.1033 58.0834 97.5013 58.4614C96.8153 58.9094 95.9473 59.1334 94.8973 59.1334C93.6653 59.1334 92.6713 58.7554 91.9153 57.9994C91.0473 57.1314 90.6133 56.0044 90.6133 54.6184C90.6133 53.1624 91.0823 51.9514 92.0203 50.9854C92.8183 50.1874 93.8053 49.7884 94.9813 49.7884C96.1293 49.7884 97.0743 50.1734 97.8163 50.9434C98.6423 51.7974 99.0553 53.0434 99.0553 54.6814V54.9334H92.7133C92.7693 55.6754 93.0213 56.2704 93.4693 56.7184C93.8473 57.0964 94.3723 57.2854 95.0443 57.2854C95.5903 57.2854 96.0593 57.1384 96.4513 56.8444C96.7733 56.5924 97.0463 56.2704 97.2703 55.8784ZM92.8603 53.2534H96.9553C96.8713 52.7634 96.6613 52.3644 96.3253 52.0564C95.9613 51.7204 95.4993 51.5524 94.9393 51.5524C94.3513 51.5524 93.8683 51.7414 93.4903 52.1194C93.1823 52.3994 92.9723 52.7774 92.8603 53.2534ZM99.411 58.8604L103.317 54.0724L100.167 50.0194H102.603L104.556 52.6024L106.53 50.0194H109.05L105.795 54.0724L109.575 58.8604H107.097L104.556 55.5634L101.931 58.8604H99.411ZM110.837 58.8604V50.0194H112.895V53.2954H116.549V50.0194H118.607V58.8604H116.549V55.1854H112.895V58.8604H110.837ZM121.046 50.0194H123.104V55.0384L129.152 49.2214V58.8604H127.094V53.7154L121.046 59.5324V50.0194ZM131.583 50.0194H133.641V53.1694L136.581 50.0194H139.311L135.447 53.8834L139.521 58.8604H136.917L133.977 55.2274L133.641 55.5634V58.8604H131.583V50.0194ZM147.173 51.0484V50.0194H149.231V58.8604H147.173V57.9364C146.487 58.7344 145.605 59.1334 144.527 59.1334C143.225 59.1334 142.182 58.6714 141.398 57.7474C140.628 56.8234 140.243 55.7174 140.243 54.4294C140.243 53.0294 140.656 51.9094 141.482 51.0694C142.322 50.2154 143.344 49.7884 144.548 49.7884C145.654 49.7884 146.529 50.2084 147.173 51.0484ZM144.8 51.6364C144.072 51.6364 143.477 51.9094 143.015 52.4554C142.567 53.0014 142.343 53.6734 142.343 54.4714C142.343 55.2554 142.567 55.9204 143.015 56.4664C143.477 57.0124 144.072 57.2854 144.8 57.2854C145.5 57.2854 146.088 57.0404 146.564 56.5504C147.054 56.0604 147.299 55.3744 147.299 54.4924C147.299 53.5824 147.054 52.8824 146.564 52.3924C146.088 51.8884 145.5 51.6364 144.8 51.6364ZM154.613 64.1104V43.1104H156.629V64.1104H154.613ZM162.005 58.8604V50.0194H167.423V51.9094H164.063V58.8604H162.005ZM170.785 57.8314V63.6694H168.727V50.0194H170.785V50.9854C171.457 50.1874 172.332 49.7884 173.41 49.7884C174.614 49.7884 175.629 50.2154 176.455 51.0694C177.295 51.9094 177.715 53.0154 177.715 54.3874C177.715 55.8014 177.281 56.9494 176.413 57.8314C175.545 58.6994 174.551 59.1334 173.431 59.1334C172.381 59.1334 171.499 58.6994 170.785 57.8314ZM173.158 51.6364C172.458 51.6364 171.863 51.8884 171.373 52.3924C170.897 52.8824 170.659 53.5824 170.659 54.4924C170.659 55.3744 170.897 56.0604 171.373 56.5504C171.863 57.0404 172.458 57.2854 173.158 57.2854C173.886 57.2854 174.474 57.0124 174.922 56.4664C175.384 55.9204 175.615 55.2554 175.615 54.4714C175.615 53.6734 175.384 53.0014 174.922 52.4554C174.474 51.9094 173.886 51.6364 173.158 51.6364ZM179.044 63.6694L182.299 57.4744L178.519 50.0194H180.997L183.517 55.1854L186.079 50.0194H188.389L181.354 63.6694H179.044ZM190.199 52.3084L188.876 51.1534C189.212 50.7474 189.66 50.4184 190.22 50.1664C190.808 49.9144 191.501 49.7884 192.299 49.7884C193.223 49.7884 193.972 49.9914 194.546 50.3974C195.162 50.8454 195.47 51.4474 195.47 52.2034C195.47 52.6934 195.344 53.0994 195.092 53.4214C194.882 53.7014 194.602 53.9114 194.252 54.0514C194.784 54.1634 195.211 54.3804 195.533 54.7024C195.911 55.0804 196.1 55.5704 196.1 56.1724C196.1 56.9704 195.848 57.6214 195.344 58.1254C194.672 58.7974 193.636 59.1334 192.236 59.1334C191.298 59.1334 190.528 58.9584 189.926 58.6084C189.296 58.2444 188.834 57.7194 188.54 57.0334L190.178 56.1934C190.374 56.6134 190.633 56.9214 190.955 57.1174C191.305 57.3414 191.746 57.4534 192.278 57.4534C192.922 57.4534 193.391 57.3064 193.685 57.0124C193.895 56.7744 194 56.5154 194 56.2354C194 55.9414 193.909 55.7034 193.727 55.5214C193.489 55.2694 192.999 55.1434 192.257 55.1434H191.333V53.4634H192.11C192.558 53.4634 192.894 53.3864 193.118 53.2324C193.37 53.0364 193.496 52.7774 193.496 52.4554C193.496 52.1194 193.37 51.8674 193.118 51.6994C192.908 51.5454 192.579 51.4684 192.131 51.4684C191.711 51.4684 191.326 51.5524 190.976 51.7204C190.682 51.8604 190.423 52.0564 190.199 52.3084ZM198.965 51.1114C199.875 50.2294 201.002 49.7884 202.346 49.7884C203.69 49.7884 204.81 50.2294 205.706 51.1114C206.616 51.9794 207.071 53.0924 207.071 54.4504C207.071 55.7944 206.616 56.9144 205.706 57.8104C204.81 58.6924 203.69 59.1334 202.346 59.1334C201.002 59.1334 199.875 58.6924 198.965 57.8104C198.069 56.9144 197.621 55.7944 197.621 54.4504C197.621 53.0924 198.069 51.9794 198.965 51.1114ZM200.435 56.5294C200.911 57.0334 201.548 57.2854 202.346 57.2854C203.144 57.2854 203.781 57.0334 204.257 56.5294C204.733 56.0114 204.971 55.3254 204.971 54.4714C204.971 53.5334 204.712 52.8264 204.194 52.3504C203.69 51.8744 203.074 51.6364 202.346 51.6364C201.618 51.6364 200.995 51.8744 200.477 52.3504C199.973 52.8264 199.721 53.5334 199.721 54.4714C199.721 55.3254 199.959 56.0114 200.435 56.5294ZM209.05 50.0194H216.736V58.8604H214.678V51.9094H211.108V58.8604H209.05V50.0194ZM225.372 55.8784L227.094 56.8444C226.702 57.5444 226.205 58.0834 225.603 58.4614C224.917 58.9094 224.049 59.1334 222.999 59.1334C221.767 59.1334 220.773 58.7554 220.017 57.9994C219.149 57.1314 218.715 56.0044 218.715 54.6184C218.715 53.1624 219.184 51.9514 220.122 50.9854C220.92 50.1874 221.907 49.7884 223.083 49.7884C224.231 49.7884 225.176 50.1734 225.918 50.9434C226.744 51.7974 227.157 53.0434 227.157 54.6814V54.9334H220.815C220.871 55.6754 221.123 56.2704 221.571 56.7184C221.949 57.0964 222.474 57.2854 223.146 57.2854C223.692 57.2854 224.161 57.1384 224.553 56.8444C224.875 56.5924 225.148 56.2704 225.372 55.8784ZM220.962 53.2534H225.057C224.973 52.7634 224.763 52.3644 224.427 52.0564C224.063 51.7204 223.601 51.5524 223.041 51.5524C222.453 51.5524 221.97 51.7414 221.592 52.1194C221.284 52.3994 221.074 52.7774 220.962 53.2534ZM231.198 57.8314V63.6694H229.14V50.0194H231.198V50.9854C231.87 50.1874 232.745 49.7884 233.823 49.7884C235.027 49.7884 236.042 50.2154 236.868 51.0694C237.708 51.9094 238.128 53.0154 238.128 54.3874C238.128 55.8014 237.694 56.9494 236.826 57.8314C235.958 58.6994 234.964 59.1334 233.844 59.1334C232.794 59.1334 231.912 58.6994 231.198 57.8314ZM233.571 51.6364C232.871 51.6364 232.276 51.8884 231.786 52.3924C231.31 52.8824 231.072 53.5824 231.072 54.4924C231.072 55.3744 231.31 56.0604 231.786 56.5504C232.276 57.0404 232.871 57.2854 233.571 57.2854C234.299 57.2854 234.887 57.0124 235.335 56.4664C235.797 55.9204 236.028 55.2554 236.028 54.4714C236.028 53.6734 235.797 53.0014 235.335 52.4554C234.887 51.9094 234.299 51.6364 233.571 51.6364ZM246.303 55.8784L248.025 56.8444C247.633 57.5444 247.136 58.0834 246.534 58.4614C245.848 58.9094 244.98 59.1334 243.93 59.1334C242.698 59.1334 241.704 58.7554 240.948 57.9994C240.08 57.1314 239.646 56.0044 239.646 54.6184C239.646 53.1624 240.115 51.9514 241.053 50.9854C241.851 50.1874 242.838 49.7884 244.014 49.7884C245.162 49.7884 246.107 50.1734 246.849 50.9434C247.675 51.7974 248.088 53.0434 248.088 54.6814V54.9334H241.746C241.802 55.6754 242.054 56.2704 242.502 56.7184C242.88 57.0964 243.405 57.2854 244.077 57.2854C244.623 57.2854 245.092 57.1384 245.484 56.8444C245.806 56.5924 246.079 56.2704 246.303 55.8784ZM241.893 53.2534H245.988C245.904 52.7634 245.694 52.3644 245.358 52.0564C244.994 51.7204 244.532 51.5524 243.972 51.5524C243.384 51.5524 242.901 51.7414 242.523 52.1194C242.215 52.3994 242.005 52.7774 241.893 53.2534ZM250.071 50.0194H253.536C254.418 50.0194 255.09 50.1944 255.552 50.5444C256.098 50.9784 256.371 51.5454 256.371 52.2454C256.371 53.0434 256.021 53.6174 255.321 53.9674C255.769 54.0514 256.168 54.2474 256.518 54.5554C256.98 54.9754 257.211 55.5424 257.211 56.2564C257.211 57.1104 256.889 57.7824 256.245 58.2724C255.713 58.6644 255.034 58.8604 254.208 58.8604H250.071V50.0194ZM252.129 53.4634H253.179C253.543 53.4634 253.816 53.4004 253.998 53.2744C254.264 53.1064 254.397 52.8684 254.397 52.5604C254.397 52.2664 254.278 52.0354 254.04 51.8674C253.872 51.7554 253.571 51.6994 253.137 51.6994H252.129V53.4634ZM252.129 57.1804H253.662C254.124 57.1804 254.481 57.0964 254.733 56.9284C255.013 56.7464 255.153 56.4874 255.153 56.1514C255.153 55.7874 255.02 55.5284 254.754 55.3744C254.516 55.2204 254.173 55.1434 253.725 55.1434H252.129V57.1804ZM260.075 51.1114C260.985 50.2294 262.112 49.7884 263.456 49.7884C264.8 49.7884 265.92 50.2294 266.816 51.1114C267.726 51.9794 268.181 53.0924 268.181 54.4504C268.181 55.7944 267.726 56.9144 266.816 57.8104C265.92 58.6924 264.8 59.1334 263.456 59.1334C262.112 59.1334 260.985 58.6924 260.075 57.8104C259.179 56.9144 258.731 55.7944 258.731 54.4504C258.731 53.0924 259.179 51.9794 260.075 51.1114ZM261.545 56.5294C262.021 57.0334 262.658 57.2854 263.456 57.2854C264.254 57.2854 264.891 57.0334 265.367 56.5294C265.843 56.0114 266.081 55.3254 266.081 54.4714C266.081 53.5334 265.822 52.8264 265.304 52.3504C264.8 51.8744 264.184 51.6364 263.456 51.6364C262.728 51.6364 262.105 51.8744 261.587 52.3504C261.083 52.8264 260.831 53.5334 260.831 54.4714C260.831 55.3254 261.069 56.0114 261.545 56.5294ZM270.906 52.3084L269.583 51.1534C269.919 50.7474 270.367 50.4184 270.927 50.1664C271.515 49.9144 272.208 49.7884 273.006 49.7884C273.93 49.7884 274.679 49.9914 275.253 50.3974C275.869 50.8454 276.177 51.4474 276.177 52.2034C276.177 52.6934 276.051 53.0994 275.799 53.4214C275.589 53.7014 275.309 53.9114 274.959 54.0514C275.491 54.1634 275.918 54.3804 276.24 54.7024C276.618 55.0804 276.807 55.5704 276.807 56.1724C276.807 56.9704 276.555 57.6214 276.051 58.1254C275.379 58.7974 274.343 59.1334 272.943 59.1334C272.005 59.1334 271.235 58.9584 270.633 58.6084C270.003 58.2444 269.541 57.7194 269.247 57.0334L270.885 56.1934C271.081 56.6134 271.34 56.9214 271.662 57.1174C272.012 57.3414 272.453 57.4534 272.985 57.4534C273.629 57.4534 274.098 57.3064 274.392 57.0124C274.602 56.7744 274.707 56.5154 274.707 56.2354C274.707 55.9414 274.616 55.7034 274.434 55.5214C274.196 55.2694 273.706 55.1434 272.964 55.1434H272.04V53.4634H272.817C273.265 53.4634 273.601 53.3864 273.825 53.2324C274.077 53.0364 274.203 52.7774 274.203 52.4554C274.203 52.1194 274.077 51.8674 273.825 51.6994C273.615 51.5454 273.286 51.4684 272.838 51.4684C272.418 51.4684 272.033 51.5524 271.683 51.7204C271.389 51.8604 271.13 52.0564 270.906 52.3084ZM278.791 50.0194H280.849V53.1694L283.789 50.0194H286.519L282.655 53.8834L286.729 58.8604H284.125L281.185 55.2274L280.849 55.5634V58.8604H278.791V50.0194ZM287.913 50.0194H289.971V55.0384L296.019 49.2214V58.8604H293.961V53.7154L287.913 59.5324V50.0194Z" fill="#636366"/>
</svg>
