<svg width="100%" height="150" viewBox="0 0 1053 145" fill="none" xmlns="http://www.w3.org/2000/svg">
                                    <g id="trawl-anim-3">
                                        <path fill-rule="evenodd" clip-rule="evenodd" d="M4.70859 0.527344L9.17083 21.4999H33.4995V24.4999H186V47.4999H214.112L243.5 54.2023V120H232V63.2999L212.888 58.9999H9.73395L9.50338 58.8682C8.97214 58.5646 8.09881 58.1522 7.24285 57.913C6.81522 57.7935 6.42926 57.7279 6.11335 57.7249C5.78961 57.7218 5.62509 57.7847 5.55421 57.832L3.99951 58.8684V24.4999H5.27971L0.869141 2.44707L4.70859 0.527344ZM5.99951 26.4999V55.7257C6.04427 55.7248 6.08864 55.7245 6.13256 55.725C6.68435 55.7303 7.25464 55.8397 7.78118 55.9868C8.7107 56.2466 9.62016 56.6573 10.2577 56.9999H212.099L212.889 49.4999H184V26.4999H31.4995V23.4999H10.9995V26.4999H8.1899L3.29044 3.47248L3.12989 3.55276L7.71932 26.4999H5.99951ZM214.876 49.7255L240.239 55.5101L232.754 61.4197L214.087 57.2196L214.876 49.7255ZM234 62.9845V118H241.5V57.0635L234 62.9845Z" fill="#E1562B"></path>
                                        <path fill-rule="evenodd" clip-rule="evenodd" d="M222.189 65.2338C222.416 63.7493 223.367 62.1688 225.174 60.6204L225.825 61.3796C224.131 62.8312 223.357 64.2132 223.178 65.385C223.001 66.5416 223.392 67.5609 224.178 68.3464C225.773 69.9412 229.034 70.5781 232.286 69.0476L232.712 69.9524C229.165 71.6219 225.426 71.0087 223.471 69.0536C222.481 68.0641 221.96 66.7334 222.189 65.2338Z" fill="#E1562B"></path>
                                        <path fill-rule="evenodd" clip-rule="evenodd" d="M226.999 70.5H228.999V106.5H233.999V110.5H228.999V132H233.499V119.5H235.499V133.831L238.879 140.965L239.899 140.2L241.099 141.8L238.12 144.035L233.366 134H229.103L223.752 144.167L221.292 141.707L222.706 140.293L223.246 140.833L226.999 133.703V70.5Z" fill="#E1562B"></path>
                                        <path fill-rule="evenodd" clip-rule="evenodd" d="M219 107.5H228.5V110H219V107.5ZM220 108.5V109H227.5V108.5H220Z" fill="#E1562B"></path>
                                        <path fill-rule="evenodd" clip-rule="evenodd" d="M51.5476 60.4998H132.037L165.567 63.0021C165.568 63.0022 165.569 63.0022 165.57 63.0023C169.722 63.2812 173.571 63.5171 177.136 63.7357C185.044 64.2205 191.557 64.6199 196.894 65.2122C204.619 66.0694 210.111 67.3475 213.925 70.0321C217.815 72.7696 219.811 76.8542 220.851 82.8991C221.884 88.9063 222 97.0235 222 108H220C220 96.9762 219.878 89.0433 218.88 83.238C217.888 77.4704 216.06 73.9801 212.774 71.6676C209.413 69.3021 204.381 68.0553 196.674 67.2C191.387 66.6133 184.952 66.2188 177.077 65.736C173.502 65.5168 169.629 65.2794 165.433 64.9976L165.425 64.9971L131.962 62.4998H51.4519L14.9043 58.9953L15.0952 57.0044L51.5476 60.4998Z" fill="#E1562B"></path>
                                        <path fill-rule="evenodd" clip-rule="evenodd" d="M58.5 61.5V58H59.5V61.5H58.5Z" fill="#E1562B"></path>
                                        <path fill-rule="evenodd" clip-rule="evenodd" d="M119.5 61.5V58H120.5V61.5H119.5Z" fill="#E1562B"></path>
                                        <path fill-rule="evenodd" clip-rule="evenodd" d="M156.5 61V57.5H157.5V61H156.5Z" fill="#E1562B"></path>
                                        <path fill-rule="evenodd" clip-rule="evenodd" d="M198.5 61V57.5H199.5V61H198.5Z" fill="#E1562B"></path>
                                        <path fill-rule="evenodd" clip-rule="evenodd" d="M214.5 64.5V58.5H215.5V64.5H214.5Z" fill="#E1562B"></path>
                                        <path fill-rule="evenodd" clip-rule="evenodd" d="M222 94H228V95H223V105.5H228V106.5H222V94Z" fill="#E1562B"></path>
                                        <path fill-rule="evenodd" clip-rule="evenodd" d="M225.5 76.5V69.5H224.5V77.5H228V76.5H225.5Z" fill="#E1562B"></path>
                                        <path d="M228 66.5C228 67.0523 227.552 67.5 227 67.5C226.448 67.5 226 67.0523 226 66.5C226 65.9477 226.448 65.5 227 65.5C227.552 65.5 228 65.9477 228 66.5Z" fill="#E1562B"></path>
                                        <path fill-rule="evenodd" clip-rule="evenodd" d="M39 26.5H38V47.5H39V26.5ZM37 25.5V48.5H40V25.5H37Z" fill="#E1562B"></path>
                                        <path fill-rule="evenodd" clip-rule="evenodd" d="M180 26.5H179V47.5H180V26.5ZM178 25.5V48.5H181V25.5H178Z" fill="#E1562B"></path>
                                        <path fill-rule="evenodd" clip-rule="evenodd" d="M33 26.5H9.5V25.5H33V26.5Z" fill="#E1562B"></path>
                                        <path fill-rule="evenodd" clip-rule="evenodd" d="M5 47.5H185V48.5H5V47.5Z" fill="#E1562B"></path>
                                        <path fill-rule="evenodd" clip-rule="evenodd" d="M32.5 58.5V25H33.5V58.5H32.5Z" fill="#E1562B"></path>
                                        <path fill-rule="evenodd" clip-rule="evenodd" d="M562 92H243V108H562V92ZM242 91V109H563V91H242Z" fill="#E1562B"></path>
                                        <path fill-rule="evenodd" clip-rule="evenodd" d="M250 104.5C250 104.224 250.224 104 250.5 104L555.5 104C555.776 104 556 104.224 556 104.5C556 104.776 555.776 105 555.5 105L250.5 105C250.224 105 250 104.776 250 104.5Z" fill="#E1562B"></path>
                                        <path d="M321 95H325V100H321V95Z" fill="#E1562B"></path>
                                        <path d="M257 95H261V100H257V95Z" fill="#E1562B"></path>
                                        <path d="M353 95H357V100H353V95Z" fill="#E1562B"></path>
                                        <path d="M289 95H293V100H289V95Z" fill="#E1562B"></path>
                                        <path d="M385 95H389V100H385V95Z" fill="#E1562B"></path>
                                        <path d="M417 95H421V100H417V95Z" fill="#E1562B"></path>
                                        <path d="M449 95H453V100H449V95Z" fill="#E1562B"></path>
                                        <path d="M481 95H485V100H481V95Z" fill="#E1562B"></path>
                                        <path d="M513 95H517V100H513V95Z" fill="#E1562B"></path>
                                        <path d="M545 95H549V100H545V95Z" fill="#E1562B"></path>
                                    </g>
                                    <g>
                                        <path d="M553 92H942V125H553V92Z" fill="white"></path>
                                        <path fill-rule="evenodd" clip-rule="evenodd" d="M724 105H741.5V106H724V105Z" fill="#E1562B"></path>
                                        <path fill-rule="evenodd" clip-rule="evenodd" d="M993 139.5C1003.49 139.5 1012 130.993 1012 120.5C1012 110.007 1003.49 101.5 993 101.5C982.507 101.5 974 110.007 974 120.5C974 130.993 982.507 139.5 993 139.5ZM993 142.5C1005.15 142.5 1015 132.65 1015 120.5C1015 108.35 1005.15 98.5 993 98.5C980.85 98.5 971 108.35 971 120.5C971 132.65 980.85 142.5 993 142.5Z" fill="#E1562B"></path>
                                        <path fill-rule="evenodd" clip-rule="evenodd" d="M993 131.5C999.075 131.5 1004 126.575 1004 120.5C1004 114.425 999.075 109.5 993 109.5C986.925 109.5 982 114.425 982 120.5C982 126.575 986.925 131.5 993 131.5ZM993 133.5C1000.18 133.5 1006 127.68 1006 120.5C1006 113.32 1000.18 107.5 993 107.5C985.82 107.5 980 113.32 980 120.5C980 127.68 985.82 133.5 993 133.5Z" fill="#E1562B"></path>
                                        <path fill-rule="evenodd" clip-rule="evenodd" d="M993 126.5C996.314 126.5 999 123.814 999 120.5C999 117.186 996.314 114.5 993 114.5C989.686 114.5 987 117.186 987 120.5C987 123.814 989.686 126.5 993 126.5ZM993 127.5C996.866 127.5 1000 124.366 1000 120.5C1000 116.634 996.866 113.5 993 113.5C989.134 113.5 986 116.634 986 120.5C986 124.366 989.134 127.5 993 127.5Z" fill="#E1562B"></path>
                                        <path fill-rule="evenodd" clip-rule="evenodd" d="M919 139.5C929.493 139.5 938 130.993 938 120.5C938 110.007 929.493 101.5 919 101.5C908.507 101.5 900 110.007 900 120.5C900 130.993 908.507 139.5 919 139.5ZM919 142.5C931.15 142.5 941 132.65 941 120.5C941 108.35 931.15 98.5 919 98.5C906.85 98.5 897 108.35 897 120.5C897 132.65 906.85 142.5 919 142.5Z" fill="#E1562B"></path>
                                        <path fill-rule="evenodd" clip-rule="evenodd" d="M919 131.5C925.075 131.5 930 126.575 930 120.5C930 114.425 925.075 109.5 919 109.5C912.925 109.5 908 114.425 908 120.5C908 126.575 912.925 131.5 919 131.5ZM919 133.5C926.18 133.5 932 127.68 932 120.5C932 113.32 926.18 107.5 919 107.5C911.82 107.5 906 113.32 906 120.5C906 127.68 911.82 133.5 919 133.5Z" fill="#E1562B"></path>
                                        <path fill-rule="evenodd" clip-rule="evenodd" d="M919 126.5C922.314 126.5 925 123.814 925 120.5C925 117.186 922.314 114.5 919 114.5C915.686 114.5 913 117.186 913 120.5C913 123.814 915.686 126.5 919 126.5ZM919 127.5C922.866 127.5 926 124.366 926 120.5C926 116.634 922.866 113.5 919 113.5C915.134 113.5 912 116.634 912 120.5C912 124.366 915.134 127.5 919 127.5Z" fill="#E1562B"></path>
                                        <path fill-rule="evenodd" clip-rule="evenodd" d="M845 139.5C855.493 139.5 864 130.993 864 120.5C864 110.007 855.493 101.5 845 101.5C834.507 101.5 826 110.007 826 120.5C826 130.993 834.507 139.5 845 139.5ZM845 142.5C857.15 142.5 867 132.65 867 120.5C867 108.35 857.15 98.5 845 98.5C832.85 98.5 823 108.35 823 120.5C823 132.65 832.85 142.5 845 142.5Z" fill="#E1562B"></path>
                                        <path fill-rule="evenodd" clip-rule="evenodd" d="M845 131.5C851.075 131.5 856 126.575 856 120.5C856 114.425 851.075 109.5 845 109.5C838.925 109.5 834 114.425 834 120.5C834 126.575 838.925 131.5 845 131.5ZM845 133.5C852.18 133.5 858 127.68 858 120.5C858 113.32 852.18 107.5 845 107.5C837.82 107.5 832 113.32 832 120.5C832 127.68 837.82 133.5 845 133.5Z" fill="#E1562B"></path>
                                        <path fill-rule="evenodd" clip-rule="evenodd" d="M845 126.5C848.314 126.5 851 123.814 851 120.5C851 117.186 848.314 114.5 845 114.5C841.686 114.5 839 117.186 839 120.5C839 123.814 841.686 126.5 845 126.5ZM845 127.5C848.866 127.5 852 124.366 852 120.5C852 116.634 848.866 113.5 845 113.5C841.134 113.5 838 116.634 838 120.5C838 124.366 841.134 127.5 845 127.5Z" fill="#E1562B"></path>
                                        <path fill-rule="evenodd" clip-rule="evenodd" d="M771 139.5C781.493 139.5 790 130.993 790 120.5C790 110.007 781.493 101.5 771 101.5C760.507 101.5 752 110.007 752 120.5C752 130.993 760.507 139.5 771 139.5ZM771 142.5C783.15 142.5 793 132.65 793 120.5C793 108.35 783.15 98.5 771 98.5C758.85 98.5 749 108.35 749 120.5C749 132.65 758.85 142.5 771 142.5Z" fill="#E1562B"></path>
                                        <path fill-rule="evenodd" clip-rule="evenodd" d="M771 131.5C777.075 131.5 782 126.575 782 120.5C782 114.425 777.075 109.5 771 109.5C764.925 109.5 760 114.425 760 120.5C760 126.575 764.925 131.5 771 131.5ZM771 133.5C778.18 133.5 784 127.68 784 120.5C784 113.32 778.18 107.5 771 107.5C763.82 107.5 758 113.32 758 120.5C758 127.68 763.82 133.5 771 133.5Z" fill="#E1562B"></path>
                                        <path fill-rule="evenodd" clip-rule="evenodd" d="M771 126.5C774.314 126.5 777 123.814 777 120.5C777 117.186 774.314 114.5 771 114.5C767.686 114.5 765 117.186 765 120.5C765 123.814 767.686 126.5 771 126.5ZM771 127.5C774.866 127.5 778 124.366 778 120.5C778 116.634 774.866 113.5 771 113.5C767.134 113.5 764 116.634 764 120.5C764 124.366 767.134 127.5 771 127.5Z" fill="#E1562B"></path>
                                        <path fill-rule="evenodd" clip-rule="evenodd" d="M697 139.5C707.493 139.5 716 130.993 716 120.5C716 110.007 707.493 101.5 697 101.5C686.507 101.5 678 110.007 678 120.5C678 130.993 686.507 139.5 697 139.5ZM697 142.5C709.15 142.5 719 132.65 719 120.5C719 108.35 709.15 98.5 697 98.5C684.85 98.5 675 108.35 675 120.5C675 132.65 684.85 142.5 697 142.5Z" fill="#E1562B"></path>
                                        <path fill-rule="evenodd" clip-rule="evenodd" d="M697 131.5C703.075 131.5 708 126.575 708 120.5C708 114.425 703.075 109.5 697 109.5C690.925 109.5 686 114.425 686 120.5C686 126.575 690.925 131.5 697 131.5ZM697 133.5C704.18 133.5 710 127.68 710 120.5C710 113.32 704.18 107.5 697 107.5C689.82 107.5 684 113.32 684 120.5C684 127.68 689.82 133.5 697 133.5Z" fill="#E1562B"></path>
                                        <path fill-rule="evenodd" clip-rule="evenodd" d="M697 126.5C700.314 126.5 703 123.814 703 120.5C703 117.186 700.314 114.5 697 114.5C693.686 114.5 691 117.186 691 120.5C691 123.814 693.686 126.5 697 126.5ZM697 127.5C700.866 127.5 704 124.366 704 120.5C704 116.634 700.866 113.5 697 113.5C693.134 113.5 690 116.634 690 120.5C690 124.366 693.134 127.5 697 127.5Z" fill="#E1562B"></path>
                                        <path fill-rule="evenodd" clip-rule="evenodd" d="M1022.5 111H1011V110H1022.5C1024.01 110 1025.09 110.993 1025.76 112.303C1026.43 113.612 1026.75 115.321 1026.75 117C1026.75 118.679 1026.43 120.388 1025.76 121.697C1025.09 123.007 1024.01 124 1022.5 124H1013.5V123H1022.5C1023.49 123 1024.29 122.368 1024.87 121.241C1025.45 120.112 1025.75 118.571 1025.75 117C1025.75 115.429 1025.45 113.888 1024.87 112.759C1024.29 111.632 1023.49 111 1022.5 111Z" fill="#E1562B"></path>
                                        <path fill-rule="evenodd" clip-rule="evenodd" d="M947.5 111.226H936V110.226H947.5C949.009 110.226 950.085 111.218 950.757 112.529C951.429 113.838 951.75 115.547 951.75 117.226C951.75 118.905 951.429 120.614 950.757 121.922C950.085 123.233 949.009 124.226 947.5 124.226H938.5V123.226H947.5C948.491 123.226 949.29 122.593 949.868 121.466C950.446 120.338 950.75 118.797 950.75 117.226C950.75 115.655 950.446 114.114 949.868 112.985C949.29 111.858 948.491 111.226 947.5 111.226Z" fill="#E1562B"></path>
                                        <path fill-rule="evenodd" clip-rule="evenodd" d="M873.5 111.226H862V110.226H873.5C875.009 110.226 876.085 111.218 876.757 112.529C877.429 113.838 877.75 115.547 877.75 117.226C877.75 118.905 877.429 120.614 876.757 121.922C876.085 123.233 875.009 124.226 873.5 124.226H864.5V123.226H873.5C874.491 123.226 875.29 122.593 875.868 121.466C876.446 120.338 876.75 118.797 876.75 117.226C876.75 115.655 876.446 114.114 875.868 112.985C875.29 111.858 874.491 111.226 873.5 111.226Z" fill="#E1562B"></path>
                                        <path fill-rule="evenodd" clip-rule="evenodd" d="M799.5 111.226H788V110.226H799.5C801.009 110.226 802.085 111.218 802.757 112.529C803.429 113.838 803.75 115.547 803.75 117.226C803.75 118.905 803.429 120.614 802.757 121.922C802.085 123.233 801.009 124.226 799.5 124.226H790.5V123.226H799.5C800.491 123.226 801.29 122.593 801.868 121.466C802.446 120.338 802.75 118.797 802.75 117.226C802.75 115.655 802.446 114.114 801.868 112.985C801.29 111.858 800.491 111.226 799.5 111.226Z" fill="#E1562B"></path>
                                        <path fill-rule="evenodd" clip-rule="evenodd" d="M725.5 111.226H714V110.226H725.5C727.009 110.226 728.085 111.218 728.757 112.529C729.429 113.838 729.75 115.547 729.75 117.226C729.75 118.905 729.429 120.614 728.757 121.922C728.085 123.233 727.009 124.226 725.5 124.226H716.5V123.226H725.5C726.491 123.226 727.29 122.593 727.868 121.466C728.446 120.338 728.75 118.797 728.75 117.226C728.75 115.655 728.446 114.114 727.868 112.985C727.29 111.858 726.491 111.226 725.5 111.226Z" fill="#E1562B"></path>
                                        <path fill-rule="evenodd" clip-rule="evenodd" d="M956.5 105.5H975.758L967.83 124H956.5V105.5ZM957.5 106.5V123H967.17L974.242 106.5H957.5Z" fill="#E1562B"></path>
                                        <path fill-rule="evenodd" clip-rule="evenodd" d="M881.5 105.726H900.758L892.83 124.226H881.5V105.726ZM882.5 106.726V123.226H892.17L899.242 106.726H882.5Z" fill="#E1562B"></path>
                                        <path fill-rule="evenodd" clip-rule="evenodd" d="M807.5 105.726H815.5V106.726H808.5V123.226H818.229L824.081 114.227L824.919 114.773L818.771 124.226H807.5V105.726Z" fill="#E1562B"></path>
                                        <path fill-rule="evenodd" clip-rule="evenodd" d="M733.5 106H741.5V107H734.5V123.5H744.229L750.081 114.502L750.919 115.047L744.771 124.5H733.5V106Z" fill="#E1562B"></path>
                                        <path fill-rule="evenodd" clip-rule="evenodd" d="M659.5 105.726H681.883L670.783 124.226H659.5V105.726ZM660.5 106.726V123.226H670.217L680.117 106.726H660.5Z" fill="#E1562B"></path>
                                        <path fill-rule="evenodd" clip-rule="evenodd" d="M1021.15 105.359C1004.83 89.5354 978.671 89.5695 964.38 106.325L963.619 105.676C978.328 88.4297 1005.17 88.4644 1021.85 104.641L1021.15 105.359Z" fill="#E1562B"></path>
                                        <path fill-rule="evenodd" clip-rule="evenodd" d="M918.291 94.001C907.517 94.0751 896.517 98.1824 889.38 106.551L888.619 105.902C895.982 97.2695 907.282 93.0767 918.284 93.001C929.28 92.9254 940.071 96.9638 946.391 104.915L945.608 105.537C939.528 97.8888 929.069 93.9269 918.291 94.001Z" fill="#E1562B"></path>
                                        <path fill-rule="evenodd" clip-rule="evenodd" d="M844.537 94.1377C833.637 94.1441 822.515 98.1852 815.38 106.55L814.619 105.902C821.984 97.2661 833.412 93.1442 844.537 93.1377C855.656 93.1312 866.571 97.2374 872.891 105.189L872.108 105.811C866.029 98.1625 855.444 94.1313 844.537 94.1377Z" fill="#E1562B"></path>
                                        <path fill-rule="evenodd" clip-rule="evenodd" d="M770.537 94.1377C759.637 94.1441 748.515 98.1852 741.38 106.55L740.619 105.902C747.984 97.2661 759.412 93.1442 770.537 93.1377C781.656 93.1312 792.571 97.2374 798.891 105.189L798.108 105.811C792.029 98.1625 781.444 94.1313 770.537 94.1377Z" fill="#E1562B"></path>
                                        <path fill-rule="evenodd" clip-rule="evenodd" d="M696.537 94.1377C685.637 94.1441 674.515 98.1852 667.38 106.55L666.619 105.902C673.984 97.2661 685.412 93.1442 696.537 93.1377C707.656 93.1312 718.571 97.2374 724.891 105.189L724.108 105.811C718.029 98.1625 707.444 94.1313 696.537 94.1377Z" fill="#E1562B"></path>
                                        <path fill-rule="evenodd" clip-rule="evenodd" d="M1044.5 101H1051.5V101.5H1052V122.5H1047.5V124.5H1037V123.5H1039.5V105.5H1021V104.5H1044.5V101ZM1044.5 105.5H1040.73L1046.84 121.5H1051V108H1044.5V105.5ZM1050.5 102V107H1045.5V102H1050.5ZM1045.77 121.5L1045.58 121H1040.5V121.5H1045.77ZM1040.5 122.5V123.5H1046.5V122.5H1040.5ZM1040.5 120H1045.2L1040.5 107.708V120Z" fill="#E1562B"></path>
                                        <path fill-rule="evenodd" clip-rule="evenodd" d="M1050 122.5L1050 99.1947L1020.83 92.5L553 92.5L553 109.5L550 109.5L550 89.5L1021.17 89.5L1053 96.8053L1053 122.5L1050 122.5Z" fill="#E1562B"></path>
                                        <path fill-rule="evenodd" clip-rule="evenodd" d="M1030.16 97.7834L1025.28 96.6939L1024.19 101.574L1029.07 102.663L1030.16 97.7834ZM1024.53 95.5L1023 102.332L1029.83 103.857L1031.36 97.0254L1024.53 95.5Z" fill="#E1562B"></path>
                                        <path fill-rule="evenodd" clip-rule="evenodd" d="M959.68 96.1787H954.68V101.179H959.68V96.1787ZM953.68 95.1787V102.179H960.68V95.1787H953.68Z" fill="#E1562B"></path>
                                        <path fill-rule="evenodd" clip-rule="evenodd" d="M883 96.5H878V101.5H883V96.5ZM877 95.5V102.5H884V95.5H877Z" fill="#E1562B"></path>
                                        <path fill-rule="evenodd" clip-rule="evenodd" d="M806 96.5H801V101.5H806V96.5ZM800 95.5V102.5H807V95.5H800Z" fill="#E1562B"></path>
                                        <path fill-rule="evenodd" clip-rule="evenodd" d="M733 96.5H728V101.5H733V96.5ZM727 95.5V102.5H734V95.5H727Z" fill="#E1562B"></path>
                                        <path fill-rule="evenodd" clip-rule="evenodd" d="M658 96.5H653V101.5H658V96.5ZM652 95.5V102.5H659V95.5H652Z" fill="#E1562B"></path>
                                        <path fill-rule="evenodd" clip-rule="evenodd" d="M611 96.5H606V101.5H611V96.5ZM605 95.5V102.5H612V95.5H605Z" fill="#E1562B"></path>
                                        <path fill-rule="evenodd" clip-rule="evenodd" d="M561 96.5H556V101.5H561V96.5ZM555 95.5V102.5H562V95.5H555Z" fill="#E1562B"></path>
                                        <path fill-rule="evenodd" clip-rule="evenodd" d="M1040 109.5H1009.5V107.5H1040V109.5Z" fill="#E1562B"></path>
                                        <path fill-rule="evenodd" clip-rule="evenodd" d="M957 109.5L936 109.5L936 107.5L957 107.5L957 109.5Z" fill="#E1562B"></path>
                                        <path fill-rule="evenodd" clip-rule="evenodd" d="M882 109.5L861 109.5L861 107.5L882 107.5L882 109.5Z" fill="#E1562B"></path>
                                        <path fill-rule="evenodd" clip-rule="evenodd" d="M808 109.5L787 109.5L787 107.5L808 107.5L808 109.5Z" fill="#E1562B"></path>
                                        <path fill-rule="evenodd" clip-rule="evenodd" d="M734 109.5L713 109.5L713 107.5L734 107.5L734 109.5Z" fill="#E1562B"></path>
                                        <path fill-rule="evenodd" clip-rule="evenodd" d="M660 109.5L551 109.5L551 107.5L660 107.5L660 109.5Z" fill="#E1562B"></path>
                                        <path d="M1027 104.5H1030V128.5H1027V104.5Z" fill="white"></path>
                                        <path fill-rule="evenodd" clip-rule="evenodd" d="M1029 105.5H1028V127.5H1029V105.5ZM1027 104.5V128.5H1030V104.5H1027Z" fill="#E1562B"></path>
                                        <path fill-rule="evenodd" clip-rule="evenodd" d="M609 113.5H552V117.5H609V113.5ZM551 112.5V118.5H610V112.5H551Z" fill="#E1562B"></path>
                                        <path fill-rule="evenodd" clip-rule="evenodd" d="M628 113.5H611.17V117.5H628V113.5ZM610.17 112.5V118.5H629V112.5H610.17Z" fill="#E1562B"></path>
                                        <path fill-rule="evenodd" clip-rule="evenodd" d="M659 109.5H629V117.5H659V109.5ZM628 108.5V118.5H660V108.5H628Z" fill="#E1562B"></path>
                                        <path fill-rule="evenodd" clip-rule="evenodd" d="M945.5 104.5H965V105.5H945.5V104.5Z" fill="#E1562B"></path>
                                        <path fill-rule="evenodd" clip-rule="evenodd" d="M890 106H872.107V105H890V106Z" fill="#E1562B"></path>
                                        <path fill-rule="evenodd" clip-rule="evenodd" d="M798 105H816V106H798V105Z" fill="#E1562B"></path>
                                        <path fill-rule="evenodd" clip-rule="evenodd" d="M585 109.5H581V112.5H585V109.5ZM580 108.5V113.5H586V108.5H580Z" fill="#E1562B"></path>
                                        <path fill-rule="evenodd" clip-rule="evenodd" d="M597 109.5H593V112.5H597V109.5ZM592 108.5V113.5H598V108.5H592Z" fill="#E1562B"></path>
                                    </g>
                                </svg>