<svg width="55" height="16" viewBox="0 0 55 16" fill="none" xmlns="http://www.w3.org/2000/svg">
<mask id="mask0_2038_5364" style="mask-type:luminance" maskUnits="userSpaceOnUse" x="0" y="0" width="55" height="15">
<path d="M54.7557 0.244629H0.65625V14.3717H54.7557V0.244629Z" fill="white"/>
</mask>
<g mask="url(#mask0_2038_5364)">
<path d="M21.3334 0.577881L16.666 13.0974H19.1743L20.1429 10.4826H25.0984L26.0624 13.0974H28.5516L23.9015 0.577881H21.3334ZM20.9928 8.18495L22.6258 3.7795L24.2496 8.18495H20.9928Z" fill="black"/>
<path d="M50.3159 4.14307C49.4381 4.14307 48.5803 4.41022 47.8506 4.91076C47.121 5.41127 46.5524 6.12272 46.2168 6.95503C45.8807 7.78737 45.7931 8.70325 45.964 9.58687C46.1353 10.4705 46.5579 11.2822 47.1785 11.9192C47.7988 12.5562 48.5893 12.9901 49.4501 13.1659C50.3108 13.3416 51.203 13.2514 52.0138 12.9066C52.8242 12.5618 53.5173 11.978 54.0047 11.2289C54.4925 10.4798 54.7525 9.59914 54.7525 8.69824C54.7525 7.49011 54.285 6.3315 53.4532 5.47726C52.6211 4.62298 51.4924 4.14307 50.3159 4.14307ZM50.3159 10.9178C49.8882 10.9178 49.4703 10.7877 49.1151 10.5439C48.7595 10.3 48.4825 9.95346 48.3188 9.54798C48.1552 9.14253 48.1124 8.69634 48.1961 8.26591C48.2794 7.83548 48.485 7.44007 48.7874 7.12976C49.0898 6.81941 49.4747 6.60806 49.894 6.52244C50.3133 6.43682 50.7479 6.48077 51.1429 6.64873C51.5376 6.81666 51.8755 7.10109 52.113 7.46598C52.3502 7.83091 52.477 8.25992 52.477 8.69883C52.4777 8.99033 52.4219 9.27912 52.3136 9.54854C52.205 9.81796 52.046 10.0628 51.8451 10.2689C51.6445 10.4751 51.4058 10.6385 51.1433 10.7499C50.8811 10.8612 50.5998 10.9183 50.3159 10.9178Z" fill="black"/>
<path d="M31.5395 9.8685L29.5135 4.30176H27.1211L30.3819 13.0973H32.7553L35.9579 4.30176H33.5655L31.5395 9.8685Z" fill="black"/>
<path d="M43.4827 1.9646H41.2061V4.30193H39.875V6.40203H41.2061V10.1461C41.2061 12.2657 42.3446 13.1768 43.9459 13.1768C44.489 13.1848 45.0278 13.0768 45.5283 12.8597V10.6809C45.256 10.784 44.9688 10.8386 44.6788 10.8424C43.9875 10.8424 43.4827 10.565 43.4827 9.61427V6.40203H45.5283V4.30193H43.4827V1.9646Z" fill="black"/>
<path d="M37.8295 3.66798C38.746 3.66798 39.489 2.90519 39.489 1.96424C39.489 1.02329 38.746 0.260498 37.8295 0.260498C36.913 0.260498 36.1699 1.02329 36.1699 1.96424C36.1699 2.90519 36.913 3.66798 37.8295 3.66798Z" fill="black"/>
<path d="M38.966 4.30176H36.6895V13.0973H38.966V4.30176Z" fill="black"/>
<path d="M5.10596 14.3453C7.55698 14.3453 9.54396 12.3054 9.54396 9.78899C9.54396 7.27258 7.55698 5.23267 5.10596 5.23267C2.65493 5.23267 0.667969 7.27258 0.667969 9.78899C0.667969 12.3054 2.65493 14.3453 5.10596 14.3453Z" fill="#04E061"/>
<path d="M12.8028 13.7708C14.2839 13.7708 15.4845 12.5381 15.4845 11.0176C15.4845 9.49703 14.2839 8.2644 12.8028 8.2644C11.3217 8.2644 10.1211 9.49703 10.1211 11.0176C10.1211 12.5381 11.3217 13.7708 12.8028 13.7708Z" fill="#FF4053"/>
<path d="M5.95441 4.63844C6.87095 4.63844 7.61393 3.87565 7.61393 2.9347C7.61393 1.99375 6.87095 1.23096 5.95441 1.23096C5.0379 1.23096 4.29492 1.99375 4.29492 2.9347C4.29492 3.87565 5.0379 4.63844 5.95441 4.63844Z" fill="#965EEB"/>
<path d="M11.7626 7.66942C13.7553 7.66942 15.3708 6.01087 15.3708 3.96497C15.3708 1.91904 13.7553 0.260498 11.7626 0.260498C9.76975 0.260498 8.1543 1.91904 8.1543 3.96497C8.1543 6.01087 9.76975 7.66942 11.7626 7.66942Z" fill="#00AAFF"/>
</g>
</svg>
