<svg width="56" height="56" viewBox="0 0 56 56" fill="none" xmlns="http://www.w3.org/2000/svg">
<g filter="url(#filter0_d_1110_8527)">
<circle cx="20" cy="20" r="20" transform="matrix(-1 0 0 1 48 6)" fill="white"/>
<path d="M22.2929 26.7071C21.9024 26.3166 21.9024 25.6834 22.2929 25.2929L28.6569 18.9289C29.0474 18.5384 29.6805 18.5384 30.0711 18.9289C30.4616 19.3195 30.4616 19.9526 30.0711 20.3431L24.4142 26L30.0711 31.6569C30.4616 32.0474 30.4616 32.6805 30.0711 33.0711C29.6805 33.4616 29.0474 33.4616 28.6569 33.0711L22.2929 26.7071ZM24 27H23V25H24V27Z" fill="#1047B0"/>
</g>
<defs>
<filter id="filter0_d_1110_8527" x="0" y="0" width="56" height="56" filterUnits="userSpaceOnUse" color-interpolation-filters="sRGB">
<feFlood flood-opacity="0" result="BackgroundImageFix"/>
<feColorMatrix in="SourceAlpha" type="matrix" values="0 0 0 0 0 0 0 0 0 0 0 0 0 0 0 0 0 0 127 0" result="hardAlpha"/>
<feOffset dy="2"/>
<feGaussianBlur stdDeviation="4"/>
<feComposite in2="hardAlpha" operator="out"/>
<feColorMatrix type="matrix" values="0 0 0 0 0.0653731 0 0 0 0 0.0653731 0 0 0 0 0.115951 0 0 0 0.15 0"/>
<feBlend mode="normal" in2="BackgroundImageFix" result="effect1_dropShadow_1110_8527"/>
<feBlend mode="normal" in="SourceGraphic" in2="effect1_dropShadow_1110_8527" result="shape"/>
</filter>
</defs>
</svg>
