<svg width="44" height="44" viewBox="0 0 44 44" fill="none" xmlns="http://www.w3.org/2000/svg">
<g clip-path="url(#clip0_1623_2554)">
<path d="M19.8947 0.0945053C13.0197 0.807785 6.99546 4.54607 3.33452 10.3726C-1.8561 18.6226 -0.885009 29.5281 5.67202 36.7125C9.30718 40.6914 13.8447 43.0719 19.2931 43.8453C20.3072 43.9914 23.6845 43.9828 24.7501 43.8453C29.7259 43.1578 34.1775 40.9492 37.5634 37.4945C38.6806 36.3601 38.9126 36.0937 39.6517 35.114C41.8517 32.1836 43.2869 28.6086 43.8455 24.707C43.9916 23.6929 43.9916 20.307 43.8455 19.2929C43.4759 16.689 42.797 14.4718 41.7228 12.2976C40.5712 9.99451 39.4025 8.3531 37.572 6.50544C34.1775 3.06794 29.9322 0.928101 25.0509 0.206223C23.9939 0.0515366 20.9431 -0.0172119 19.8947 0.0945053ZM27.1822 9.4531C29.6572 9.61638 31.1009 10.1578 32.4244 11.4125C33.765 12.6929 34.3837 14.2656 34.547 16.8179C34.6587 18.4937 34.6587 25.4633 34.547 27.1648C34.3837 29.7429 33.7478 31.3328 32.3728 32.6304C31.0923 33.8422 29.6142 34.3922 27.1822 34.5469C25.5322 34.65 18.4681 34.65 16.8181 34.5469C14.3431 34.3836 12.8994 33.8422 11.5759 32.5875C10.2353 31.307 9.61655 29.7344 9.45327 27.182C9.34155 25.5148 9.35015 18.3476 9.45327 16.7664C9.62515 14.2484 10.2439 12.6843 11.5759 11.4125C12.8478 10.2094 14.3689 9.60779 16.5775 9.46169C18.0298 9.35857 25.6955 9.35857 27.1822 9.4531Z" fill="#1047B0"/>
<path d="M18.8633 11.6961C16.2852 11.7477 15.8641 11.7734 15.2883 11.9281C13.4578 12.4266 12.418 13.4578 11.9281 15.2883C11.7734 15.8641 11.7477 16.2937 11.6961 18.975C11.6703 20.6336 11.6703 23.3664 11.6961 25.0336C11.7477 27.7062 11.7734 28.1359 11.9281 28.7117C12.418 30.5422 13.4578 31.582 15.2883 32.0719C15.8641 32.2266 16.2938 32.2523 18.975 32.3039C20.6336 32.3297 23.3664 32.3297 25.0336 32.3039C27.7234 32.2523 28.1359 32.2266 28.7289 32.0633C30.5078 31.5906 31.5906 30.5164 32.0719 28.7289C32.2266 28.1273 32.2523 27.732 32.3039 25.025C32.3297 23.3664 32.3297 20.6336 32.3039 18.9664C32.2523 16.2852 32.2266 15.8641 32.0719 15.2883C31.582 13.4578 30.5336 12.4094 28.7117 11.9281C28.0414 11.7563 27.8695 11.7477 23.0312 11.6617C22.3438 11.6531 20.4703 11.6703 18.8633 11.6961ZM29.2789 13.8445C29.6055 13.9648 29.9922 14.3344 30.1297 14.6695C30.5508 15.6406 29.8031 16.7578 28.7461 16.7578C27.9383 16.7578 27.2422 16.0703 27.2422 15.2625C27.2422 14.2227 28.3078 13.475 29.2789 13.8445ZM24.0883 15.8727C25.1281 16.2336 25.7039 16.6031 26.5203 17.4023C27.3109 18.1844 27.8008 18.9578 28.1617 19.9805C28.3852 20.6164 28.4023 20.7625 28.4023 22C28.4023 23.2375 28.3852 23.3836 28.1617 24.0195C27.818 25.0078 27.3023 25.8156 26.5633 26.5633C25.8156 27.3023 25.0078 27.818 24.0195 28.1617C23.3836 28.3852 23.2375 28.4023 22 28.4023C20.7625 28.4023 20.6164 28.3852 19.9805 28.1617C18.9578 27.8008 18.1844 27.3109 17.4023 26.5203C16.6031 25.7039 16.2422 25.1281 15.8641 24.0883C15.6063 23.3578 15.5977 23.2805 15.5977 22C15.6063 20.7883 15.6234 20.6078 15.8383 19.9805C16.2852 18.6484 17.2391 17.3937 18.3906 16.6289C19.6453 15.7953 20.5477 15.5461 22.1719 15.5805C23.2031 15.6062 23.4094 15.6406 24.0883 15.8727Z" fill="#1047B0"/>
<path d="M20.9857 17.9267C18.7256 18.5283 17.3506 20.7971 17.9178 22.9799C18.3303 24.5525 19.4475 25.6697 21.0287 26.0822C23.985 26.8556 26.8553 23.9853 26.0818 21.0291C25.4803 18.7346 23.1857 17.3338 20.9857 17.9267Z" fill="#1047B0"/>
</g>
<defs>
<clipPath id="clip0_1623_2554">
<rect width="44" height="44" fill="white"/>
</clipPath>
</defs>
</svg>
