<svg width="24" height="25" viewBox="0 0 24 25" fill="none" xmlns="http://www.w3.org/2000/svg">
<g clip-path="url(#clip0_1110_9035)">
<path d="M6.625 11.295C8.065 14.125 10.38 16.44 13.215 17.88L15.415 15.675C15.69 15.4 16.085 15.32 16.43 15.43C17.55 15.8 18.755 16 20 16C20.555 16 21 16.445 21 17V20.5C21 21.055 20.555 21.5 20 21.5C10.61 21.5 3 13.89 3 4.5C3 3.945 3.45 3.5 4 3.5H7.5C8.055 3.5 8.5 3.945 8.5 4.5C8.5 5.745 8.7 6.95 9.07 8.07C9.18 8.415 9.1 8.81 8.825 9.085L6.625 11.295Z" fill="#1047B0"/>
</g>
<defs>
<clipPath id="clip0_1110_9035">
<rect width="24" height="24" fill="white" transform="translate(0 0.5)"/>
</clipPath>
</defs>
</svg>
