<svg width="44" height="44" viewBox="0 0 44 44" fill="none" xmlns="http://www.w3.org/2000/svg">
<path d="M19.9069 0.055191C13.0226 0.769913 6.99014 4.51575 3.32422 10.3541C-1.87347 18.6294 -0.892447 29.6172 5.68211 36.773C9.33943 40.7514 13.8659 43.1194 19.3045 43.8944C20.3286 44.0408 23.7105 44.0322 24.769 43.8858C30.1216 43.1453 34.648 40.7858 38.2967 36.8247C41.3 33.5697 43.2191 29.4019 43.8903 24.7174C44.0366 23.7013 44.0366 20.3086 43.8903 19.2924C43.3826 15.7102 42.2466 12.6705 40.362 9.82882C39.5703 8.62326 38.77 7.64159 37.6513 6.51353C34.2178 3.03464 29.9667 0.890469 25.0702 0.167133C24.0117 0.0121346 20.9568 -0.0567551 19.9069 0.055191ZM31.8254 13.523C32.3332 14.0052 32.3418 14.341 31.9029 17.5702C31.5157 20.4463 30.1818 28.558 29.7085 30.8744C29.5364 31.7269 29.2008 32.4588 28.8394 32.7688C28.5812 33.0013 28.4865 33.0272 27.9702 33.0272C27.5485 33.0272 27.2818 32.9755 26.9634 32.8205C26.4126 32.5708 19.6746 28.0241 19.2271 27.6108C18.8226 27.2319 18.6333 26.8272 18.7108 26.5C18.8226 26.035 19.3389 25.4838 21.7571 23.2105C24.6141 20.5238 26.0684 19.103 26.2749 18.793C26.4643 18.5002 26.3266 18.216 25.9996 18.216C25.7156 18.216 25.9479 18.0697 20.4232 21.7466C15.2686 25.1738 15.1481 25.2427 14.0552 25.2169C13.2205 25.1997 9.89878 24.2955 8.978 23.8391C8.0314 23.3655 8.14327 22.6594 9.24476 22.1083C10.2 21.6261 21.5333 16.7522 25.096 15.2969C30.2765 13.1699 31.1973 12.9202 31.8254 13.523Z" fill="#1047B0"/>
</svg>
