<svg width="32" height="32" viewBox="0 0 32 32" fill="none" xmlns="http://www.w3.org/2000/svg">
<path d="M4.54545 16C4.54545 9.67383 9.67383 4.54545 16 4.54545C22.3262 4.54545 27.4545 9.67383 27.4545 16C27.4545 22.3262 22.3262 27.4545 16 27.4545C9.67383 27.4545 4.54545 22.3262 4.54545 16ZM16 2C8.26801 2 2 8.26801 2 16C2 23.732 8.26801 30 16 30C23.732 30 30 23.732 30 16C30 8.26801 23.732 2 16 2ZM22.6272 13.0818L14.9909 20.7181C14.4938 21.2152 13.688 21.2152 13.191 20.7181L9.37277 16.9C8.87574 16.4029 8.87574 15.5971 9.37277 15.1C9.8698 14.603 10.6757 14.603 11.1727 15.1L14.0909 18.0183L20.8273 11.2819C21.3243 10.7848 22.1302 10.7848 22.6272 11.2819C23.1243 11.7789 23.1243 12.5847 22.6272 13.0818Z" fill="#1047B0"/>
</svg>
