<svg width="32" height="32" viewBox="0 0 32 32" fill="none" xmlns="http://www.w3.org/2000/svg">
<g clip-path="url(#clip0_1117_9623)">
<path d="M14.9068 2.14219C14.01 2.25156 13.7037 2.29531 13.1404 2.41015C10.8271 2.88593 8.49746 4.04531 6.80762 5.56015C4.18809 7.90625 2.65684 10.7445 2.13184 14.1953C1.99512 15.0922 1.99512 17.1047 2.13184 17.9687C2.65684 21.3102 4.01855 23.9898 6.29902 26.1664C8.21309 27.993 10.4061 29.1797 12.949 29.7594C13.2717 29.8305 13.6271 29.8906 13.742 29.8906C14.3053 29.8852 14.8521 29.3383 14.8521 28.7695C14.8521 28.4086 14.5732 27.9492 14.2451 27.7852C14.1631 27.7414 13.8568 27.6539 13.5561 27.5883C9.0334 26.6148 5.5334 23.1258 4.54355 18.5977C4.34668 17.7062 4.28652 17.0664 4.28652 16C4.28652 14.2062 4.64199 12.6531 5.42402 11.0289C7.15762 7.43047 10.4771 5.03515 14.524 4.45547C15.2186 4.35703 16.9467 4.37344 17.6686 4.48281C19.2982 4.73437 20.6873 5.2375 22.06 6.05781L22.5084 6.32578L22.0162 7.04766C21.7482 7.4414 21.524 7.81875 21.524 7.8789C21.524 7.94453 21.5732 8.04297 21.6334 8.09765C21.7373 8.19062 21.8139 8.19062 23.7225 8.02109C24.8162 7.92266 25.7732 7.83516 25.8607 7.81875C26.085 7.775 26.3256 7.54531 26.3639 7.3375C26.3912 7.20078 26.26 6.64844 25.8443 5.1664C25.5436 4.07265 25.2537 3.1375 25.2045 3.08281C25.0842 2.94609 24.9037 2.95703 24.767 3.10468C24.7068 3.17578 24.4771 3.4875 24.2584 3.80469C24.0396 4.12187 23.8428 4.40078 23.8209 4.42266C23.799 4.45 23.6459 4.38437 23.4873 4.28047C21.8904 3.25781 19.9709 2.54687 18.024 2.24609C17.4771 2.15859 15.3443 2.0875 14.9068 2.14219Z" fill="#1047B0" stroke="#1047B0" stroke-width="0.5"/>
<path d="M14.8461 7.15704C14.7477 7.22266 14.6055 7.36485 14.5398 7.46329L14.4141 7.64923V12.3305L14.4195 17.0117L18.5867 19.1609C20.9656 20.3914 22.8414 21.3266 22.9563 21.343C23.2789 21.3922 23.5305 21.3156 23.7383 21.1133C24.0992 20.7524 24.1102 20.1836 23.7602 19.85C23.6727 19.768 21.95 18.8438 19.9266 17.7992L16.2461 15.8961L16.2188 11.7453L16.1914 7.59454L16.0383 7.39767C15.9562 7.28829 15.8141 7.15704 15.7266 7.11329C15.4859 6.98751 15.0648 7.00938 14.8461 7.15704Z" fill="#1047B0" stroke="#1047B0" stroke-width="0.5"/>
<path d="M27.5118 10.307C27.0743 10.5039 26.7899 10.9852 26.8446 11.4281C26.8829 11.7563 27.2001 12.593 27.3587 12.7789C27.818 13.3258 28.7204 13.282 29.136 12.6914C29.3766 12.3469 29.393 12.0242 29.1907 11.4391C28.9391 10.7281 28.797 10.5149 28.4579 10.3453C28.1243 10.1758 27.818 10.1649 27.5118 10.307Z" fill="#1047B0" stroke="#1047B0" stroke-width="0.5"/>
<path d="M28.5559 14.5234C28.3262 14.5945 28.0637 14.7914 27.9161 15.0047C27.8012 15.1797 27.7848 15.2672 27.7684 15.8578C27.7465 16.5852 27.7958 16.8367 28.0145 17.0938C28.4903 17.6625 29.3708 17.6133 29.8028 16.9953C29.9559 16.782 29.9723 16.7164 29.9887 16.2078C30.0215 15.4422 29.9395 15.1195 29.6551 14.8297C29.3379 14.518 28.9497 14.4086 28.5559 14.5234Z" fill="#1047B0" stroke="#1047B0" stroke-width="0.5"/>
<path d="M27.6987 18.9969C27.4034 19.1883 27.3214 19.3032 27.1354 19.8227C26.8401 20.6375 26.8511 20.993 27.1683 21.3867C27.6714 21.9883 28.6503 21.9063 29.0003 21.2282C29.1644 20.911 29.3995 20.1508 29.3995 19.9375C29.3995 19.3032 28.9183 18.8438 28.262 18.8438C28.005 18.8438 27.8956 18.8766 27.6987 18.9969Z" fill="#1047B0" stroke="#1047B0" stroke-width="0.5"/>
<path d="M25.8122 22.8305C25.5606 22.9453 24.9919 23.5851 24.8059 23.9625C24.4723 24.6406 24.9317 25.4883 25.67 25.5594C26.1895 25.6086 26.4848 25.4281 27.0153 24.7336C27.3762 24.2633 27.4801 23.9297 27.3817 23.5578C27.3051 23.2844 27.0153 22.9398 26.7528 22.8141C26.5067 22.6992 26.0911 22.7047 25.8122 22.8305Z" fill="#1047B0" stroke="#1047B0" stroke-width="0.5"/>
<path d="M22.5476 25.8657C21.8257 26.2539 21.4976 26.5492 21.3718 26.9321C21.0765 27.7907 22.0171 28.6274 22.8703 28.2719C23.2203 28.1297 23.8984 27.6539 24.0242 27.468C24.1828 27.2328 24.2484 26.9102 24.1937 26.6094C24.1445 26.325 24.0351 26.1664 23.7453 25.9313C23.5757 25.7891 23.4882 25.7617 23.1765 25.7453C22.8648 25.7289 22.7718 25.7453 22.5476 25.8657Z" fill="#1047B0" stroke="#1047B0" stroke-width="0.5"/>
<path d="M18.3789 27.5992C18.1383 27.6539 17.8867 27.7305 17.8156 27.7687C17.4984 27.9328 17.2086 28.3867 17.2031 28.7148C17.2031 29.3328 17.7336 29.8906 18.3242 29.8906C18.5156 29.8906 19.4508 29.6719 19.6039 29.5953C20.4023 29.1797 20.4078 28.0312 19.6148 27.6102C19.3195 27.457 18.9859 27.4516 18.3789 27.5992Z" fill="#1047B0" stroke="#1047B0" stroke-width="0.5"/>
</g>
<defs>
<clipPath id="clip0_1117_9623">
<rect width="30" height="30" fill="white" transform="translate(1 1)"/>
</clipPath>
</defs>
</svg>
